<svg width="475" height="475" viewBox="0 0 475 475" fill="none" xmlns="http://www.w3.org/2000/svg">
<g id="Relaxation-bro 1">
<g id="freepik--background-simple--inject-1--inject-142">
<path id="Vector" d="M296.334 93.157C293.075 102.296 294.377 113.031 295.754 124.393C296.02 126.549 296.277 128.734 296.514 130.91C291.764 127.68 274.807 115.71 268.527 108.005C264.898 103.521 260.927 94.487 257.564 85.6615C271.501 91.2855 285.523 92.53 296.676 92.207L296.334 93.157ZM112.917 364.477C112.29 365.797 111.321 368.382 110.276 371.336C118.608 373.825 128.241 376.152 139.223 378.603C140.753 376.588 142.164 374.485 143.45 372.305C149.996 361.095 158.318 360.905 162.222 361.56C162.289 356.202 161.861 349.362 159.714 338.637C158.918 334.7 157.721 330.855 156.142 327.161C141.892 333.554 128.592 348.64 128.374 348.83L127.357 347.947C124.507 353.581 120.194 357.447 116.907 360.297C115.045 361.95 113.43 363.413 112.917 364.477ZM317.557 103.113C303.687 103.531 298.234 108.889 297.122 110.171C297.331 114.617 297.892 119.282 298.471 124.06C298.747 126.312 299.013 128.592 299.26 130.862C303.364 129.912 311.401 128.573 317.918 130.758C323.969 132.781 335.854 131.527 341.791 130.758C338.305 127.794 335.521 124.497 334.59 121.685C332.785 116.185 322.05 106.704 317.557 103.113ZM219.384 367.65C222.338 366.158 224.894 364.895 226.898 364.125L229.026 363.299C231.734 362.235 234.679 361.095 238.308 359.888C237.804 355.87 236.294 342.446 236.959 330.78C237.605 319.38 215.764 299.126 209.941 293.921C209.893 294.206 209.846 294.5 209.789 294.785C207.556 306.09 197.933 315.894 185.64 320.853C187.54 322.534 192.584 327.75 197.705 340.385C200.925 348.327 209.105 356.877 216.306 364.41L219.384 367.65ZM130.036 338.2C129.867 340.261 129.459 342.295 128.82 344.261C133.456 339.454 143.764 329.621 154.974 324.634C151.023 316.443 145.541 309.084 138.824 302.955C136.459 306.218 133.287 308.811 129.618 310.479C130.644 319.685 130.784 328.968 130.036 338.2ZM167.789 321.575C186.476 321.698 204.108 309.453 207.11 294.253C209.798 280.573 204.915 266.703 203.614 263.387C199.044 264.489 194.456 265.525 190.076 266.513C183.531 267.985 177.356 269.363 172.976 270.655C157.396 275.167 151.212 284.458 143.393 296.229C142.443 297.682 141.417 299.183 140.391 300.694C147.579 307.106 153.412 314.89 157.548 323.589C160.816 322.319 164.284 321.647 167.789 321.603V321.575ZM350.626 249.869C357.989 244.226 363.708 234.84 368.021 226.594C363.193 223.451 357.995 220.918 352.545 219.051C343.34 216.135 331.17 213.759 321.395 211.859C309.045 209.456 304.247 208.421 302.917 207.109C302.403 206.587 301.941 206.014 301.54 205.4C301.416 209.567 302.724 213.65 305.245 216.971C307.145 219.431 309.197 221.872 311.211 224.228C318.592 232.845 325.556 240.986 321.518 249.774C319.302 254.392 316.113 258.475 312.17 261.744C317.348 262.551 327.532 264.29 338.495 266.94C338.2 264.404 339.293 258.599 350.626 249.897V249.869ZM109.621 159.334C110.571 166.335 101.555 182.808 95.9313 187.273C98.6388 189.734 104.415 195.453 108.063 202.398C111.103 208.202 114.523 214.282 118.361 217.949C120.356 212.068 125.961 197.391 132.82 194.589C134.805 193.781 136.306 191.026 136.914 186.989C138.073 179.389 135.803 168.435 130.597 164.141C124.127 158.821 110.913 152.741 105.289 150.233C107.626 153.9 109.317 157.196 109.621 159.334ZM213.988 69.2835C214.887 69.5305 215.79 69.787 216.695 70.053C213.238 75.7235 210.273 81.6796 207.832 87.856C212.458 86.526 222.139 85.3575 230.85 94.6865C236.474 100.709 239.21 108.452 241.614 115.282C244.017 122.113 246.107 128.022 250.306 129.285C256.167 131.004 262.12 132.387 268.138 133.427C268.508 123.927 266.532 111.577 266.181 109.43C262.067 104.186 257.631 93.803 254.116 84.227C241.899 79.0495 228.39 73.245 213.988 69.2835ZM94.1358 318.839C96.0358 320.207 106.771 328.615 109.877 341.326C112.309 351.281 117.981 353.21 120.033 353.59C124.192 349.399 126.761 343.89 127.3 338.01C128 329.173 127.879 320.291 126.939 311.476C125.834 311.799 124.707 312.04 123.567 312.198C116.299 313.224 107.92 311.248 98.6008 308.55C98.2208 310.384 97.1188 313.623 94.1358 318.839ZM136.8 301.036C133.19 296.685 116.603 276.574 109.668 266.399C106.818 268.536 99.6363 274.531 98.4203 280.307L96.6058 279.927C100.757 290.377 99.5318 302.043 98.9713 305.814C115.501 310.65 127.994 312.939 136.8 301.036ZM151.354 131.404C138.387 129.808 132.478 127.537 130.008 126.236C127.3 132.658 121.002 148.846 119.064 153.786C123.728 156.112 128.162 158.873 132.307 162.032C135.755 164.882 138.007 169.907 139.128 175.256C143.878 173.166 155.743 166.763 159.078 153.843C162.289 141.493 158.897 134.387 157.007 131.594C155.127 131.683 153.243 131.619 151.373 131.404H151.354ZM177.147 75.848C171.646 83.163 169.699 98.135 169.68 98.287L169.224 98.23C175.874 104.775 181.127 109.345 183.284 111.188C185.758 108.539 188.463 106.117 191.368 103.949C196.878 99.5125 203.12 94.449 204.355 89.699C205.656 84.7115 210.055 75.772 213.959 69.236C203.937 66.3625 193.592 64.7666 183.17 64.486C181.711 68.536 179.69 72.3608 177.166 75.848H177.147ZM188.338 142.5C191.634 153.187 189.164 160.74 186.78 168.036C185.374 172.34 183.93 176.776 183.626 181.906C183.476 184.919 183.911 187.932 184.908 190.779H184.975L185.231 190.646C186.096 190.323 206.635 182.78 218.899 185.25C224.384 186.438 229.991 186.961 235.6 186.808C233.548 178.543 238.184 163.875 242.868 156.151C245.338 152.076 250.468 150.09 255.398 148.171C261.212 145.91 266.713 143.782 267.653 138.671C267.796 137.892 267.9 137.056 267.986 136.192C261.766 135.117 255.613 133.69 249.556 131.917C244.027 130.254 241.737 123.747 239.106 116.213C236.788 109.63 234.156 102.182 228.922 96.5675C219.612 86.5925 209.219 90.1265 206.882 91.105C205.105 96.482 198.778 101.555 193.164 106.096C189.573 108.946 186.172 111.71 184.737 113.924C182.702 117.084 180.312 120.001 177.612 122.617C179.493 124.194 184.3 129.2 188.338 142.5ZM319.039 248.634C322.345 241.433 315.932 233.937 309.14 226.005C307.088 223.62 304.979 221.15 303.069 218.623C298.775 212.923 298.262 206.891 299.184 200.573C298.965 199.975 298.842 199.566 298.832 199.509L299.374 199.357C299.934 196.099 300.818 192.774 301.72 189.382C302.623 185.991 303.563 182.485 304.219 178.875C304.874 175.265 304.285 172.434 302.499 170.164C298.623 165.262 290.301 164.777 290.216 164.768V164.597C286.459 167.161 282.522 169.45 278.436 171.446C271.789 174.76 265.386 178.541 259.274 182.761C252.054 187.853 248.254 195.253 246.231 203.233L246.373 203.509L246.126 203.632C244.017 212.182 243.932 221.454 243.856 229.216C243.799 235.552 243.742 241.024 242.687 244.843C242.054 246.758 240.888 248.452 239.324 249.726C246.658 253.878 254.809 258.096 256.32 258.276C257.27 258.181 259.312 258.713 266.447 260.689C275.063 263.083 288.088 266.693 294.054 266.703C303.098 266.674 314.536 258.4 319.039 248.634ZM272.992 376.884C270.598 359.955 259.92 357.504 259.474 357.409L259.132 357.342C249.176 359.247 239.428 362.11 230.024 365.892L227.877 366.719C226.157 367.384 223.915 368.476 221.331 369.778C226.081 374.908 229.995 379.705 231.354 383.895C233.349 390.013 233.425 400.909 233.121 410.001C236.937 409.92 240.744 409.602 244.521 409.051C255.338 407.44 265.711 403.628 274.997 397.85C274.287 395.46 273.967 392.971 274.047 390.478C273.996 385.919 273.643 381.368 272.992 376.855V376.884ZM277.4 396.349C284.518 391.644 291.227 386.346 297.455 380.513C300.856 377.272 303.926 373.701 306.622 369.854L307.287 368.97C302.822 363.346 299.231 356.934 298.044 349.97C297.347 345.924 297.318 341.79 297.958 337.734C293.892 344.014 285.608 352.63 269.962 355.271C267.853 355.623 265.867 355.984 263.977 356.335C268.024 358.672 273.923 364.116 275.671 376.456C276.365 381.09 276.752 385.765 276.83 390.45C276.769 392.433 276.961 394.415 277.4 396.349ZM82.2703 263.349C86.1349 265.791 89.5562 268.872 92.3878 272.46C93.8512 274.358 95.0764 276.429 96.0358 278.625C98.0688 272.184 105.393 266.19 108.167 264.109C101.66 253.612 102.125 245.442 109.716 235.353C115.72 227.373 117.164 222.319 117.477 220.875C112.936 217.075 109.146 210.425 105.612 203.689C101.812 196.479 95.4183 190.494 93.3663 188.689C90.8773 190.95 84.5503 205.39 79.6673 218.576C84.1703 224.514 88.8348 230.65 87.7043 238.393C86.3718 246.8 84.5671 255.126 82.2988 263.33L82.2703 263.349ZM342.618 297.606C344.951 298.669 347.214 299.881 349.391 301.235C353.756 298.284 358.357 295.698 363.147 293.503C358.065 295.05 352.868 296.191 347.605 296.913L342.618 297.606ZM384.152 267.71C388.788 265.743 390.184 265.145 390.194 257.706C390.194 253.374 389.871 247.627 389.51 242.668L389.092 243.096C383.246 237.602 376.962 232.594 370.301 228.123C365.874 236.569 359.974 246.173 352.251 252.092C340.309 261.259 341.069 266.342 341.24 267.045C341.403 267.272 341.549 267.51 341.677 267.757C346.902 269.087 352.203 270.607 357.134 272.346C362.064 274.084 366.159 275.623 369.56 277.02L369.436 276.868C373.162 273.648 377.291 270.927 381.72 268.774C382.632 268.356 383.439 268.014 384.18 267.691L384.152 267.71ZM139.65 178.087C140.083 181.188 140.083 184.334 139.65 187.435C139.071 191.235 137.75 194.142 135.85 195.842C142.384 199.635 149.925 201.329 157.453 200.697C167.732 199.747 177.916 194.731 182.476 192.204C181.241 188.865 180.704 185.309 180.899 181.754C181.213 176.272 182.723 171.656 184.186 167.19C186.542 159.98 188.765 153.169 185.735 143.308C181.355 129.124 176.339 125.058 175.475 124.44C171.115 128.142 165.801 130.542 160.142 131.366C162.308 135.223 164.892 142.766 161.823 154.555C157.909 169.404 144.305 176.159 139.65 178.087ZM356.25 274.901C351.842 273.362 347.149 271.975 342.475 270.759C342.599 273.305 341.658 277.086 337.535 282.16C333.412 287.232 329.565 292.353 326.316 296.789C329.403 296.523 335.493 295.839 347.216 294.205C364.61 291.745 374.766 285.997 378.081 283.831C371.005 280.387 363.712 277.404 356.25 274.901ZM372.077 137.522C370.633 137.864 369.465 138.082 368.401 138.234C367.185 138.405 366.111 138.491 364.914 138.595C363.508 138.709 361.903 138.842 359.708 139.146C356.089 139.659 350.037 136.885 344.736 133.048C344.166 133.133 343.397 133.256 342.466 133.38C336.433 134.235 323.789 135.612 317.034 133.38C311.021 131.366 303.212 132.772 299.507 133.655C299.997 138.409 300.077 143.196 299.744 147.962C299.174 154.508 296.723 158.868 292.933 162.383C296.106 162.944 301.426 164.464 304.618 168.482C306.917 171.389 307.686 175.056 306.888 179.388C306.214 183.103 305.264 186.666 304.342 190.104C303.381 193.463 302.592 196.869 301.977 200.307C302.608 202.11 303.575 203.777 304.827 205.219C305.919 206.169 314.403 207.784 321.927 209.247C331.769 211.147 344.024 213.541 353.381 216.514C358.98 218.415 364.324 220.996 369.294 224.2C370.187 222.433 371.023 220.742 371.783 219.184C373.825 215.023 375.298 212.011 376.533 210.634C379.316 207.556 384.608 194.969 386.413 190.37C386.27 186.086 386.156 181.868 386.09 178.068C377.739 166.62 371.184 155.135 371.982 141.521C372.077 140.182 372.106 138.842 372.096 137.522H372.077ZM159.809 203.167C159.106 203.271 158.394 203.357 157.691 203.414C149.087 204.194 140.469 202.092 133.19 197.439C127.87 200.422 122.674 213.503 120.622 219.773C121.704 220.521 122.936 221.027 124.232 221.255L126.445 221.578C132.316 222.424 136.952 223.088 148.295 228.332C159.952 233.738 171.095 261.497 173.423 267.71C177.774 266.513 183.464 265.23 189.468 263.91C199.5 261.649 211.318 258.979 221.094 255.768C218.244 249.546 207.547 226.243 200.479 217.36C198.902 215.374 197.163 213.36 195.472 211.413C190.95 206.15 186.343 200.792 183.54 194.75C178.999 197.248 169.718 201.771 159.828 203.167H159.809ZM218.348 187.9C207.309 185.677 188.062 192.499 186.286 193.135L185.906 193.372C188.556 199.206 193.088 204.449 197.524 209.589C199.225 211.555 200.982 213.598 202.597 215.621C210.055 224.998 220.989 248.871 223.678 254.847C232.361 251.769 238.878 248.197 240.046 244.093C240.996 240.625 241.053 235.315 241.11 229.169C241.186 221.407 241.272 212.22 243.305 203.518C241.984 200.953 238.878 194.816 236.522 189.478C234.194 189.667 227.943 189.838 218.367 187.9H218.348ZM257.707 180.5C263.916 176.207 270.425 172.362 277.182 168.995C288.943 162.839 296.039 159.134 297.037 147.677C297.35 143.247 297.287 138.797 296.847 134.377H296.761L296.22 134.007C295.412 133.475 278.588 122.151 269.506 113.107C270.408 119.557 271.71 131.48 270.304 139.146C269.088 145.796 262.609 148.285 256.348 150.717C251.598 152.551 247.162 154.289 245.167 157.567C239.923 166.212 235.933 181.174 238.659 187.501C240.426 191.605 242.754 196.355 244.359 199.614C246.715 192.232 250.724 185.44 257.707 180.5ZM189.82 377.074C195.928 379.335 207.746 373.578 216.847 368.97L214.33 366.329C206.948 358.615 198.588 349.875 195.168 341.439C189.136 326.562 183.35 322.544 183.293 322.506L183.93 321.556C178.756 323.447 173.289 324.412 167.78 324.406C164.661 324.452 161.575 325.056 158.669 326.192C160.301 330.047 161.539 334.058 162.365 338.162C164.683 349.742 165.044 356.896 164.911 362.529C166.934 363.85 181.289 373.93 189.82 377.074ZM372.096 137.522C372.096 136.572 372.096 135.622 372.03 134.729C372.077 135.65 372.096 136.581 372.096 137.522ZM260.357 354.274C260.545 354.105 260.711 353.913 260.851 353.704C261.906 352.155 263.236 347.823 260.376 336.158C257.821 325.707 253.726 321.081 250.107 317.015C247.019 313.538 244.103 310.251 243.248 304.19C242.839 301.273 242.45 298.167 242.079 295.155C240.873 285.484 239.628 275.481 237.329 270.208C235.021 265.148 232.371 260.25 229.397 255.55C222.899 258.324 214.71 260.68 206.293 262.779C207.727 266.475 211.679 278.103 210.397 290.728C212.392 292.448 240.502 316.834 239.685 330.99C239.058 342 240.407 354.635 240.958 359.1C244.217 358.083 248.026 357.038 252.624 355.965L248.824 355.148L258.058 354.777L260.357 354.274ZM265.725 263.283C261.602 262.133 257.336 260.955 256.557 260.946C254.572 261.231 244.977 256.072 237.301 251.693L237.662 251.056C235.846 252.338 233.92 253.454 231.905 254.391C234.898 259.113 237.561 264.036 239.875 269.125C242.298 274.749 243.561 284.952 244.787 294.775C245.157 297.768 245.547 300.865 245.955 303.762C246.696 309.006 249.1 311.723 252.149 315.162C257.591 320.793 261.36 327.825 263.036 335.473C265.069 343.786 265.373 349.847 263.986 353.523C265.753 353.191 267.606 352.858 269.563 352.526C287.708 349.467 295.213 338 297.73 332.69C289.326 331.022 281.736 326.55 276.203 320.007C269.373 311.714 270.826 305.311 272.508 297.891C273.354 294.536 273.926 291.118 274.218 287.669C274.588 279.807 272.568 272.017 268.423 265.326L269.848 264.375L265.725 263.283ZM111.929 236.977C104.719 246.563 104.519 253.555 111.169 263.701C117.126 272.792 133.893 293.208 138.444 298.708C139.394 297.369 140.239 296.039 141.104 294.747C148.704 283.347 155.268 273.438 170.791 268.489C168.369 262.2 157.624 235.667 147.146 230.812C136.192 225.739 131.727 225.112 126.075 224.276L123.842 223.953C122.452 223.729 121.115 223.249 119.9 222.537C119.178 225.017 117.211 229.966 111.929 236.977ZM114.684 95.323C114.342 95.874 114.01 96.425 113.734 96.9855C114 96.425 114.342 95.874 114.684 95.323ZM107.654 370.547C108.747 367.46 109.773 364.715 110.504 363.299C111.255 361.732 112.974 360.211 115.14 358.283C116.005 357.523 116.936 356.697 117.867 355.813C114.637 354.682 109.583 351.414 107.265 341.971C104.51 330.695 94.9148 322.829 92.7773 321.204C92.1503 322.23 91.4758 323.304 90.7063 324.463C85.8518 331.835 79.7148 343.596 75.4113 352.174C75.2118 351.918 75.0313 351.652 74.8413 351.386C81.3108 360.316 92.9958 366.168 110.314 371.336L107.654 370.547ZM70.0248 314.117C70.1483 313.424 70.2718 312.749 70.4048 312.084C70.3003 312.749 70.1483 313.424 70.0248 314.117ZM112.708 98.8C112.993 98.2427 113.31 97.6822 113.658 97.1185C113.31 97.6758 112.993 98.2363 112.708 98.8ZM99.7503 142.272C101.023 143.972 102.268 145.711 103.427 147.402L103.759 146.613C104.196 146.794 110.048 149.245 116.679 152.579C118.921 146.803 125.989 128.668 128.203 123.68C129.153 121.486 125.999 117.98 122.626 114.18C118.769 109.896 114.399 105.041 112.87 99.2275L112.756 98.7715C106.191 111.511 106.6 125.295 101.061 139.308C100.653 140.334 100.206 141.303 99.7503 142.262V142.272ZM70.4143 312.056C70.5378 311.391 70.6708 310.745 70.8038 310.108C75.8388 306.688 85.0538 302.29 96.3208 305.073C96.9763 300.247 98.3253 284.525 90.2503 274.113C84.3983 266.513 76.4753 262.903 69.4833 259.682C67.8113 258.913 66.2248 258.182 64.7333 257.431C63.5553 255.702 62.3773 253.935 61.2183 252.12C63.6028 253.954 66.9183 255.483 70.6138 257.203C73.4638 258.533 76.6843 260.005 79.8668 261.848C82.0213 254.01 83.7433 246.059 85.0253 238.032C85.9753 231.429 81.6813 225.758 77.5203 220.267C74.6703 216.467 71.6588 212.553 70.4808 208.354C68.7328 202.103 66.3578 187.596 64.7808 177.431C65.5788 176.614 66.3768 175.816 67.1843 175.047C68.7233 185.164 71.2883 201.162 73.0933 207.613C74.1215 210.654 75.6815 213.487 77.7008 215.982C78.8028 213.066 80.8263 207.822 83.0683 202.578C90.0793 186.143 92.2263 185.839 93.3758 185.677C96.0738 185.297 107.93 167.114 106.885 159.714C106.486 156.864 102.686 151.002 98.2588 144.989C87.2673 164.293 65.3793 168.663 52.4878 194.94C38.4183 223.611 59.1378 249.204 71.8108 267.662C81.7003 281.96 74.1003 293.189 70.4143 312.056ZM88.3503 323C94.2023 314.117 95.6083 309.595 95.9503 307.847C83.4673 304.655 73.5968 311.248 69.9963 314.155C69.023 319.62 68.565 325.164 68.6283 330.714C68.7233 338.314 70.3573 344.47 73.5683 349.657C77.9003 341.107 83.7048 330.058 88.3503 323ZM415.977 229.235C413.82 231.43 411.626 233.367 409.612 235.125L407.911 236.635C403.085 240.939 394.554 250.762 392.825 252.785C392.892 254.543 392.93 256.234 392.93 257.754C392.93 266.617 390.555 267.995 385.225 270.265C384.503 270.569 383.724 270.902 382.869 271.291C379.055 273.149 375.474 275.451 372.201 278.15C376.254 279.828 380.19 281.777 383.981 283.983L380.979 285.418L380.817 285.323L380.143 285.807C378.727 286.463 377.293 287.118 375.868 287.707C396.473 278.426 417.25 267.757 417.202 240.986C417.205 237.026 416.804 233.076 416.005 229.197L415.977 229.235ZM321.689 379.43C321.157 380.18 320.606 380.931 320.027 381.672C320.635 380.893 321.186 380.142 321.718 379.392L321.689 379.43ZM279.148 406.134L278.388 404.842C277.381 403.123 276.621 401.707 276.032 400.453C266.529 406.301 255.938 410.16 244.901 411.796C240.955 412.373 236.975 412.691 232.988 412.746C232.988 413.06 232.988 413.345 232.94 413.639C243.086 413.639 256.073 411.891 273.686 407.597C276.536 406.894 279.262 406.134 281.856 405.346L279.148 406.134ZM162.298 384.037C162.108 382.137 161.937 380.133 161.776 378.071C161.556 374.72 161.591 371.357 161.88 368.011C161.947 366.833 162.023 365.617 162.08 364.335C159.23 363.698 151.82 363.318 145.749 373.72C144.6 375.687 143.374 377.52 142.12 379.287L139.204 378.641C143.374 379.591 147.754 380.542 152.276 381.491C155.895 382.261 159.22 383.125 162.298 384.056V384.037ZM337.07 298.3C330.344 299.155 326.259 299.544 324.245 299.63L323.76 300.304C322.183 302.461 320.834 304.332 319.637 305.919C319.001 306.774 318.051 307.819 316.854 309.168C312.883 313.614 306.185 321.109 302.604 330.78C305.898 331.156 309.226 331.125 312.512 330.685C319.906 329.8 327.404 330.469 334.524 332.652C335.664 322.04 337.174 312.702 342.96 306.641C344.216 305.327 345.562 304.102 346.988 302.974C343.858 301.067 340.533 299.5 337.07 298.3ZM346.627 99.5125C341.544 103.854 337.839 103.673 330.477 103.312C328.083 103.198 325.252 103.056 321.803 103.037C326.496 107.046 335.36 115.149 337.212 120.745C338.162 123.728 341.516 127.214 345.373 130.15C350.408 133.95 356.374 136.8 359.366 136.42C361.637 136.097 363.28 135.954 364.724 135.84C367.195 135.682 369.647 135.301 372.049 134.7C371.156 116.954 362.482 103.92 350.322 96.4155C349.125 97.432 347.909 98.4485 346.627 99.541V99.5125ZM321.718 379.392C326.371 372.589 329.617 364.924 331.265 356.848C330.173 357.029 329.09 357.209 328.045 357.399C319.295 359.014 315.115 363.289 310.821 368.856C314.142 372.677 317.788 376.202 321.718 379.392ZM331.265 356.848C331.474 355.898 331.683 354.948 331.864 353.998C331.683 354.939 331.474 355.898 331.265 356.848ZM314.821 307.372C315.923 306.137 316.882 305.064 317.452 304.304C318.63 302.736 319.979 300.874 321.547 298.727L321.661 298.566C320.806 297.255 317.053 292.172 305.929 285.266C297.546 280.058 289.549 274.254 281.998 267.9L282.255 267.605C278.683 266.788 274.873 265.8 271.254 264.822C275.39 271.796 277.373 279.838 276.954 287.935C276.648 291.527 276.054 295.088 275.177 298.585C273.534 305.843 272.327 311.096 278.322 318.354C283.577 324.548 290.808 328.739 298.794 330.22C298.794 330.125 298.794 330.059 298.794 330.049L299.868 330.362C303.544 319.988 310.65 312.065 314.821 307.372ZM312.921 333.421C309.216 333.904 305.464 333.904 301.758 333.421C300.199 338.629 299.858 344.125 300.761 349.486C301.825 355.671 305.007 361.484 309.045 366.662C313.339 361.18 318.184 356.402 327.551 354.673C328.947 354.416 330.401 354.179 331.864 353.951C333.07 347.643 333.659 341.373 334.258 335.454C327.37 333.274 320.095 332.59 312.921 333.45V333.421ZM228.751 384.721C227.497 380.874 223.545 376.171 218.795 371.042C211.831 374.576 203.804 378.594 197.059 379.886C199.569 384.869 201.482 390.13 202.759 395.561C205.058 404.529 215.242 409.649 230.375 409.972C230.698 401.08 230.632 390.45 228.751 384.75V384.721ZM335.436 280.421C339.749 275.139 339.996 271.757 339.644 270.028C325.727 266.57 312.655 264.556 309.149 264.043C305.477 266.676 301.254 268.44 296.799 269.201C295.902 269.326 294.998 269.389 294.092 269.391C291.768 269.319 289.455 269.052 287.176 268.593C293.624 273.778 300.374 278.575 307.392 282.957C317.338 289.113 321.642 293.939 323.39 296.257C326.8 291.517 330.847 286.026 335.436 280.421ZM281.884 405.298C300.827 399.465 312.598 391.124 320.055 381.634C316.114 378.454 312.453 374.942 309.111 371.137C309.016 371.25 308.931 371.365 308.845 371.488C306.048 375.47 302.866 379.167 299.345 382.527C292.87 388.606 285.877 394.108 278.445 398.971C279.154 400.494 279.944 401.979 280.811 403.417C281.159 404.057 281.517 404.684 281.884 405.298ZM232.969 413.592C232.019 413.592 231.126 413.592 230.242 413.544C230.242 413.259 230.242 412.984 230.242 412.689C213.836 412.3 202.692 406.438 200.089 396.235C197.676 386.849 195.007 381.814 194.095 380.256C192.317 380.417 190.525 380.207 188.832 379.639C181.061 376.789 169.157 368.771 164.74 365.702C164.74 366.538 164.645 367.346 164.597 368.144C164.323 371.364 164.288 374.6 164.493 377.824C164.683 380.285 164.901 382.679 165.12 384.902C197.258 395.551 200.517 413.582 232.969 413.592ZM164.702 93.689C165.566 94.5725 166.402 95.4085 167.238 96.2445C167.932 91.941 170.136 80.6455 174.981 74.2045C177.157 71.2258 178.927 67.9703 180.244 64.524C181.194 64.524 182.21 64.524 183.179 64.524C170.489 64.2453 157.883 66.6371 146.177 71.5445C151.79 79.3782 157.982 86.7805 164.702 93.689ZM388.636 231.933C388.636 231.79 388.066 223.05 387.79 221.112C387.619 219.887 387.087 208.952 386.65 196.916C384.37 202.245 380.893 209.864 378.528 212.477C377.578 213.522 376.029 216.686 374.234 220.352C373.436 221.986 372.552 223.773 371.602 225.644C377.846 229.803 383.763 234.434 389.301 239.495C388.949 235.163 388.645 231.999 388.636 231.933ZM298.908 94.05C297.577 98.0548 296.935 102.256 297.008 106.476C300.077 104.025 306.413 100.586 317.956 100.348C323.266 100.234 327.313 100.434 330.553 100.595C337.64 100.937 340.566 101.08 344.803 97.4415L347.729 94.9715C348.593 95.4275 349.429 95.9215 350.256 96.425C340.952 90.8021 330.11 88.2588 319.276 89.1575C312.826 90.7831 306.228 91.7569 299.583 92.0645C299.383 92.7485 299.146 93.4135 298.908 94.05ZM146.177 71.554C145.417 71.8675 144.666 72.1905 143.906 72.504C144.666 72.2 145.417 71.8675 146.177 71.554ZM407.845 233.054C410.436 230.845 412.91 228.502 415.255 226.033C410.685 208.838 399 195.215 388.911 181.887C389.31 198.275 390.346 219.659 390.498 220.742C390.792 222.794 391.334 231.363 391.362 231.724C391.362 231.809 392.217 240.417 392.673 248.824C395.951 245.072 402.173 238.156 406.116 234.574L407.845 233.054ZM115.463 98.5435C116.831 103.721 120.964 108.319 124.612 112.375C128.26 116.432 131.613 120.175 130.996 123.642C132.744 124.592 138.216 127.025 151.706 128.687C153.571 128.916 155.454 128.977 157.33 128.867L157.881 128.307C158.045 128.467 158.2 128.635 158.346 128.81C167.438 127.965 175.266 122.797 181.697 113.401C179.142 111.235 171.77 104.804 162.745 95.5985C155.796 88.4514 149.406 80.7814 143.631 72.656L143.906 72.5325C128.402 79.5245 119.833 87.191 114.694 95.3325C114.95 96.387 115.178 97.47 115.463 98.5435ZM416.005 229.197C415.787 228.123 415.53 227.069 415.255 226.014C415.53 227.05 415.787 228.123 416.005 229.197Z" fill="#5094B6"/>
<path id="Vector_2" opacity="0.6" d="M296.334 93.157C293.075 102.296 294.377 113.031 295.754 124.393C296.02 126.549 296.277 128.734 296.514 130.91C291.764 127.68 274.807 115.71 268.527 108.005C264.898 103.521 260.927 94.487 257.564 85.6615C271.501 91.2855 285.523 92.53 296.676 92.207L296.334 93.157ZM112.917 364.477C112.29 365.797 111.321 368.382 110.276 371.336C118.608 373.825 128.241 376.152 139.223 378.603C140.753 376.588 142.164 374.485 143.45 372.305C149.996 361.095 158.318 360.905 162.222 361.56C162.289 356.202 161.861 349.362 159.714 338.637C158.918 334.7 157.721 330.855 156.142 327.161C141.892 333.554 128.592 348.64 128.374 348.83L127.357 347.947C124.507 353.581 120.194 357.447 116.907 360.297C115.045 361.95 113.43 363.413 112.917 364.477ZM317.557 103.113C303.687 103.531 298.234 108.889 297.122 110.171C297.331 114.617 297.892 119.282 298.471 124.06C298.747 126.312 299.013 128.592 299.26 130.862C303.364 129.912 311.401 128.573 317.918 130.758C323.969 132.781 335.854 131.527 341.791 130.758C338.305 127.794 335.521 124.497 334.59 121.685C332.785 116.185 322.05 106.704 317.557 103.113ZM219.384 367.65C222.338 366.158 224.894 364.895 226.898 364.125L229.026 363.299C231.734 362.235 234.679 361.095 238.308 359.888C237.804 355.87 236.294 342.446 236.959 330.78C237.605 319.38 215.764 299.126 209.941 293.921C209.893 294.206 209.846 294.5 209.789 294.785C207.556 306.09 197.933 315.894 185.64 320.853C187.54 322.534 192.584 327.75 197.705 340.385C200.925 348.327 209.105 356.877 216.306 364.41L219.384 367.65ZM130.036 338.2C129.867 340.261 129.459 342.295 128.82 344.261C133.456 339.454 143.764 329.621 154.974 324.634C151.023 316.443 145.541 309.084 138.824 302.955C136.459 306.218 133.287 308.811 129.618 310.479C130.644 319.685 130.784 328.968 130.036 338.2ZM167.789 321.575C186.476 321.698 204.108 309.453 207.11 294.253C209.798 280.573 204.915 266.703 203.614 263.387C199.044 264.489 194.456 265.525 190.076 266.513C183.531 267.985 177.356 269.363 172.976 270.655C157.396 275.167 151.212 284.458 143.393 296.229C142.443 297.682 141.417 299.183 140.391 300.694C147.579 307.106 153.412 314.89 157.548 323.589C160.816 322.319 164.284 321.647 167.789 321.603V321.575ZM350.626 249.869C357.989 244.226 363.708 234.84 368.021 226.594C363.193 223.451 357.995 220.918 352.545 219.051C343.34 216.135 331.17 213.759 321.395 211.859C309.045 209.456 304.247 208.421 302.917 207.109C302.403 206.587 301.941 206.014 301.54 205.4C301.416 209.567 302.724 213.65 305.245 216.971C307.145 219.431 309.197 221.872 311.211 224.228C318.592 232.845 325.556 240.986 321.518 249.774C319.302 254.392 316.113 258.475 312.17 261.744C317.348 262.551 327.532 264.29 338.495 266.94C338.2 264.404 339.293 258.599 350.626 249.897V249.869ZM109.621 159.334C110.571 166.335 101.555 182.808 95.9313 187.273C98.6388 189.734 104.415 195.453 108.063 202.398C111.103 208.202 114.523 214.282 118.361 217.949C120.356 212.068 125.961 197.391 132.82 194.589C134.805 193.781 136.306 191.026 136.914 186.989C138.073 179.389 135.803 168.435 130.597 164.141C124.127 158.821 110.913 152.741 105.289 150.233C107.626 153.9 109.317 157.196 109.621 159.334ZM213.988 69.2835C214.887 69.5305 215.79 69.787 216.695 70.053C213.238 75.7235 210.273 81.6796 207.832 87.856C212.458 86.526 222.139 85.3575 230.85 94.6865C236.474 100.709 239.21 108.452 241.614 115.282C244.017 122.113 246.107 128.022 250.306 129.285C256.167 131.004 262.12 132.387 268.138 133.427C268.508 123.927 266.532 111.577 266.181 109.43C262.067 104.186 257.631 93.803 254.116 84.227C241.899 79.0495 228.39 73.245 213.988 69.2835ZM94.1358 318.839C96.0358 320.207 106.771 328.615 109.877 341.326C112.309 351.281 117.981 353.21 120.033 353.59C124.192 349.399 126.761 343.89 127.3 338.01C128 329.173 127.879 320.291 126.939 311.476C125.834 311.799 124.707 312.04 123.567 312.198C116.299 313.224 107.92 311.248 98.6008 308.55C98.2208 310.384 97.1188 313.623 94.1358 318.839ZM136.8 301.036C133.19 296.685 116.603 276.574 109.668 266.399C106.818 268.536 99.6363 274.531 98.4203 280.307L96.6058 279.927C100.757 290.377 99.5318 302.043 98.9713 305.814C115.501 310.65 127.994 312.939 136.8 301.036ZM151.354 131.404C138.387 129.808 132.478 127.537 130.008 126.236C127.3 132.658 121.002 148.846 119.064 153.786C123.728 156.112 128.162 158.873 132.307 162.032C135.755 164.882 138.007 169.907 139.128 175.256C143.878 173.166 155.743 166.763 159.078 153.843C162.289 141.493 158.897 134.387 157.007 131.594C155.127 131.683 153.243 131.619 151.373 131.404H151.354ZM177.147 75.848C171.646 83.163 169.699 98.135 169.68 98.287L169.224 98.23C175.874 104.775 181.127 109.345 183.284 111.188C185.758 108.539 188.463 106.117 191.368 103.949C196.878 99.5125 203.12 94.449 204.355 89.699C205.656 84.7115 210.055 75.772 213.959 69.236C203.937 66.3625 193.592 64.7666 183.17 64.486C181.711 68.536 179.69 72.3608 177.166 75.848H177.147ZM188.338 142.5C191.634 153.187 189.164 160.74 186.78 168.036C185.374 172.34 183.93 176.776 183.626 181.906C183.476 184.919 183.911 187.932 184.908 190.779H184.975L185.231 190.646C186.096 190.323 206.635 182.78 218.899 185.25C224.384 186.438 229.991 186.961 235.6 186.808C233.548 178.543 238.184 163.875 242.868 156.151C245.338 152.076 250.468 150.09 255.398 148.171C261.212 145.91 266.713 143.782 267.653 138.671C267.796 137.892 267.9 137.056 267.986 136.192C261.766 135.117 255.613 133.69 249.556 131.917C244.027 130.254 241.737 123.747 239.106 116.213C236.788 109.63 234.156 102.182 228.922 96.5675C219.612 86.5925 209.219 90.1265 206.882 91.105C205.105 96.482 198.778 101.555 193.164 106.096C189.573 108.946 186.172 111.71 184.737 113.924C182.702 117.084 180.312 120.001 177.612 122.617C179.493 124.194 184.3 129.2 188.338 142.5ZM319.039 248.634C322.345 241.433 315.932 233.937 309.14 226.005C307.088 223.62 304.979 221.15 303.069 218.623C298.775 212.923 298.262 206.891 299.184 200.573C298.965 199.975 298.842 199.566 298.832 199.509L299.374 199.357C299.934 196.099 300.818 192.774 301.72 189.382C302.623 185.991 303.563 182.485 304.219 178.875C304.874 175.265 304.285 172.434 302.499 170.164C298.623 165.262 290.301 164.777 290.216 164.768V164.597C286.459 167.161 282.522 169.45 278.436 171.446C271.789 174.76 265.386 178.541 259.274 182.761C252.054 187.853 248.254 195.253 246.231 203.233L246.373 203.509L246.126 203.632C244.017 212.182 243.932 221.454 243.856 229.216C243.799 235.552 243.742 241.024 242.687 244.843C242.054 246.758 240.888 248.452 239.324 249.726C246.658 253.878 254.809 258.096 256.32 258.276C257.27 258.181 259.312 258.713 266.447 260.689C275.063 263.083 288.088 266.693 294.054 266.703C303.098 266.674 314.536 258.4 319.039 248.634ZM272.992 376.884C270.598 359.955 259.92 357.504 259.474 357.409L259.132 357.342C249.176 359.247 239.428 362.11 230.024 365.892L227.877 366.719C226.157 367.384 223.915 368.476 221.331 369.778C226.081 374.908 229.995 379.705 231.354 383.895C233.349 390.013 233.425 400.909 233.121 410.001C236.937 409.92 240.744 409.602 244.521 409.051C255.338 407.44 265.711 403.628 274.997 397.85C274.287 395.46 273.967 392.971 274.047 390.478C273.996 385.919 273.643 381.368 272.992 376.855V376.884ZM277.4 396.349C284.518 391.644 291.227 386.346 297.455 380.513C300.856 377.272 303.926 373.701 306.622 369.854L307.287 368.97C302.822 363.346 299.231 356.934 298.044 349.97C297.347 345.924 297.318 341.79 297.958 337.734C293.892 344.014 285.608 352.63 269.962 355.271C267.853 355.623 265.867 355.984 263.977 356.335C268.024 358.672 273.923 364.116 275.671 376.456C276.365 381.09 276.752 385.765 276.83 390.45C276.769 392.433 276.961 394.415 277.4 396.349ZM82.2703 263.349C86.1349 265.791 89.5562 268.872 92.3878 272.46C93.8512 274.358 95.0764 276.429 96.0358 278.625C98.0688 272.184 105.393 266.19 108.167 264.109C101.66 253.612 102.125 245.442 109.716 235.353C115.72 227.373 117.164 222.319 117.477 220.875C112.936 217.075 109.146 210.425 105.612 203.689C101.812 196.479 95.4183 190.494 93.3663 188.689C90.8773 190.95 84.5503 205.39 79.6673 218.576C84.1703 224.514 88.8348 230.65 87.7043 238.393C86.3718 246.8 84.5671 255.126 82.2988 263.33L82.2703 263.349ZM342.618 297.606C344.951 298.669 347.214 299.881 349.391 301.235C353.756 298.284 358.357 295.698 363.147 293.503C358.065 295.05 352.868 296.191 347.605 296.913L342.618 297.606ZM384.152 267.71C388.788 265.743 390.184 265.145 390.194 257.706C390.194 253.374 389.871 247.627 389.51 242.668L389.092 243.096C383.246 237.602 376.962 232.594 370.301 228.123C365.874 236.569 359.974 246.173 352.251 252.092C340.309 261.259 341.069 266.342 341.24 267.045C341.403 267.272 341.549 267.51 341.677 267.757C346.902 269.087 352.203 270.607 357.134 272.346C362.064 274.084 366.159 275.623 369.56 277.02L369.436 276.868C373.162 273.648 377.291 270.927 381.72 268.774C382.632 268.356 383.439 268.014 384.18 267.691L384.152 267.71ZM139.65 178.087C140.083 181.188 140.083 184.334 139.65 187.435C139.071 191.235 137.75 194.142 135.85 195.842C142.384 199.635 149.925 201.329 157.453 200.697C167.732 199.747 177.916 194.731 182.476 192.204C181.241 188.865 180.704 185.309 180.899 181.754C181.213 176.272 182.723 171.656 184.186 167.19C186.542 159.98 188.765 153.169 185.735 143.308C181.355 129.124 176.339 125.058 175.475 124.44C171.115 128.142 165.801 130.542 160.142 131.366C162.308 135.223 164.892 142.766 161.823 154.555C157.909 169.404 144.305 176.159 139.65 178.087ZM356.25 274.901C351.842 273.362 347.149 271.975 342.475 270.759C342.599 273.305 341.658 277.086 337.535 282.16C333.412 287.232 329.565 292.353 326.316 296.789C329.403 296.523 335.493 295.839 347.216 294.205C364.61 291.745 374.766 285.997 378.081 283.831C371.005 280.387 363.712 277.404 356.25 274.901ZM372.077 137.522C370.633 137.864 369.465 138.082 368.401 138.234C367.185 138.405 366.111 138.491 364.914 138.595C363.508 138.709 361.903 138.842 359.708 139.146C356.089 139.659 350.037 136.885 344.736 133.048C344.166 133.133 343.397 133.256 342.466 133.38C336.433 134.235 323.789 135.612 317.034 133.38C311.021 131.366 303.212 132.772 299.507 133.655C299.997 138.409 300.077 143.196 299.744 147.962C299.174 154.508 296.723 158.868 292.933 162.383C296.106 162.944 301.426 164.464 304.618 168.482C306.917 171.389 307.686 175.056 306.888 179.388C306.214 183.103 305.264 186.666 304.342 190.104C303.381 193.463 302.592 196.869 301.977 200.307C302.608 202.11 303.575 203.777 304.827 205.219C305.919 206.169 314.403 207.784 321.927 209.247C331.769 211.147 344.024 213.541 353.381 216.514C358.98 218.415 364.324 220.996 369.294 224.2C370.187 222.433 371.023 220.742 371.783 219.184C373.825 215.023 375.298 212.011 376.533 210.634C379.316 207.556 384.608 194.969 386.413 190.37C386.27 186.086 386.156 181.868 386.09 178.068C377.739 166.62 371.184 155.135 371.982 141.521C372.077 140.182 372.106 138.842 372.096 137.522H372.077ZM159.809 203.167C159.106 203.271 158.394 203.357 157.691 203.414C149.087 204.194 140.469 202.092 133.19 197.439C127.87 200.422 122.674 213.503 120.622 219.773C121.704 220.521 122.936 221.027 124.232 221.255L126.445 221.578C132.316 222.424 136.952 223.088 148.295 228.332C159.952 233.738 171.095 261.497 173.423 267.71C177.774 266.513 183.464 265.23 189.468 263.91C199.5 261.649 211.318 258.979 221.094 255.768C218.244 249.546 207.547 226.243 200.479 217.36C198.902 215.374 197.163 213.36 195.472 211.413C190.95 206.15 186.343 200.792 183.54 194.75C178.999 197.248 169.718 201.771 159.828 203.167H159.809ZM218.348 187.9C207.309 185.677 188.062 192.499 186.286 193.135L185.906 193.372C188.556 199.206 193.088 204.449 197.524 209.589C199.225 211.555 200.982 213.598 202.597 215.621C210.055 224.998 220.989 248.871 223.678 254.847C232.361 251.769 238.878 248.197 240.046 244.093C240.996 240.625 241.053 235.315 241.11 229.169C241.186 221.407 241.272 212.22 243.305 203.518C241.984 200.953 238.878 194.816 236.522 189.478C234.194 189.667 227.943 189.838 218.367 187.9H218.348ZM257.707 180.5C263.916 176.207 270.425 172.362 277.182 168.995C288.943 162.839 296.039 159.134 297.037 147.677C297.35 143.247 297.287 138.797 296.847 134.377H296.761L296.22 134.007C295.412 133.475 278.588 122.151 269.506 113.107C270.408 119.557 271.71 131.48 270.304 139.146C269.088 145.796 262.609 148.285 256.348 150.717C251.598 152.551 247.162 154.289 245.167 157.567C239.923 166.212 235.933 181.174 238.659 187.501C240.426 191.605 242.754 196.355 244.359 199.614C246.715 192.232 250.724 185.44 257.707 180.5ZM189.82 377.074C195.928 379.335 207.746 373.578 216.847 368.97L214.33 366.329C206.948 358.615 198.588 349.875 195.168 341.439C189.136 326.562 183.35 322.544 183.293 322.506L183.93 321.556C178.756 323.447 173.289 324.412 167.78 324.406C164.661 324.452 161.575 325.056 158.669 326.192C160.301 330.047 161.539 334.058 162.365 338.162C164.683 349.742 165.044 356.896 164.911 362.529C166.934 363.85 181.289 373.93 189.82 377.074ZM372.096 137.522C372.096 136.572 372.096 135.622 372.03 134.729C372.077 135.65 372.096 136.581 372.096 137.522ZM260.357 354.274C260.545 354.105 260.711 353.913 260.851 353.704C261.906 352.155 263.236 347.823 260.376 336.158C257.821 325.707 253.726 321.081 250.107 317.015C247.019 313.538 244.103 310.251 243.248 304.19C242.839 301.273 242.45 298.167 242.079 295.155C240.873 285.484 239.628 275.481 237.329 270.208C235.021 265.148 232.371 260.25 229.397 255.55C222.899 258.324 214.71 260.68 206.293 262.779C207.727 266.475 211.679 278.103 210.397 290.728C212.392 292.448 240.502 316.834 239.685 330.99C239.058 342 240.407 354.635 240.958 359.1C244.217 358.083 248.026 357.038 252.624 355.965L248.824 355.148L258.058 354.777L260.357 354.274ZM265.725 263.283C261.602 262.133 257.336 260.955 256.557 260.946C254.572 261.231 244.977 256.072 237.301 251.693L237.662 251.056C235.846 252.338 233.92 253.454 231.905 254.391C234.898 259.113 237.561 264.036 239.875 269.125C242.298 274.749 243.561 284.952 244.787 294.775C245.157 297.768 245.547 300.865 245.955 303.762C246.696 309.006 249.1 311.723 252.149 315.162C257.591 320.793 261.36 327.825 263.036 335.473C265.069 343.786 265.373 349.847 263.986 353.523C265.753 353.191 267.606 352.858 269.563 352.526C287.708 349.467 295.213 338 297.73 332.69C289.326 331.022 281.736 326.55 276.203 320.007C269.373 311.714 270.826 305.311 272.508 297.891C273.354 294.536 273.926 291.118 274.218 287.669C274.588 279.807 272.568 272.017 268.423 265.326L269.848 264.375L265.725 263.283ZM111.929 236.977C104.719 246.563 104.519 253.555 111.169 263.701C117.126 272.792 133.893 293.208 138.444 298.708C139.394 297.369 140.239 296.039 141.104 294.747C148.704 283.347 155.268 273.438 170.791 268.489C168.369 262.2 157.624 235.667 147.146 230.812C136.192 225.739 131.727 225.112 126.075 224.276L123.842 223.953C122.452 223.729 121.115 223.249 119.9 222.537C119.178 225.017 117.211 229.966 111.929 236.977ZM114.684 95.323C114.342 95.874 114.01 96.425 113.734 96.9855C114 96.425 114.342 95.874 114.684 95.323ZM107.654 370.547C108.747 367.46 109.773 364.715 110.504 363.299C111.255 361.732 112.974 360.211 115.14 358.283C116.005 357.523 116.936 356.697 117.867 355.813C114.637 354.682 109.583 351.414 107.265 341.971C104.51 330.695 94.9148 322.829 92.7773 321.204C92.1503 322.23 91.4758 323.304 90.7063 324.463C85.8518 331.835 79.7148 343.596 75.4113 352.174C75.2118 351.918 75.0313 351.652 74.8413 351.386C81.3108 360.316 92.9958 366.168 110.314 371.336L107.654 370.547ZM70.0248 314.117C70.1483 313.424 70.2718 312.749 70.4048 312.084C70.3003 312.749 70.1483 313.424 70.0248 314.117ZM112.708 98.8C112.993 98.2427 113.31 97.6822 113.658 97.1185C113.31 97.6758 112.993 98.2363 112.708 98.8ZM99.7503 142.272C101.023 143.972 102.268 145.711 103.427 147.402L103.759 146.613C104.196 146.794 110.048 149.245 116.679 152.579C118.921 146.803 125.989 128.668 128.203 123.68C129.153 121.486 125.999 117.98 122.626 114.18C118.769 109.896 114.399 105.041 112.87 99.2275L112.756 98.7715C106.191 111.511 106.6 125.295 101.061 139.308C100.653 140.334 100.206 141.303 99.7503 142.262V142.272ZM70.4143 312.056C70.5378 311.391 70.6708 310.745 70.8038 310.108C75.8388 306.688 85.0538 302.29 96.3208 305.073C96.9763 300.247 98.3253 284.525 90.2503 274.113C84.3983 266.513 76.4753 262.903 69.4833 259.682C67.8113 258.913 66.2248 258.182 64.7333 257.431C63.5553 255.702 62.3773 253.935 61.2183 252.12C63.6028 253.954 66.9183 255.483 70.6138 257.203C73.4638 258.533 76.6843 260.005 79.8668 261.848C82.0213 254.01 83.7433 246.059 85.0253 238.032C85.9753 231.429 81.6813 225.758 77.5203 220.267C74.6703 216.467 71.6588 212.553 70.4808 208.354C68.7328 202.103 66.3578 187.596 64.7808 177.431C65.5788 176.614 66.3768 175.816 67.1843 175.047C68.7233 185.164 71.2883 201.162 73.0933 207.613C74.1215 210.654 75.6815 213.487 77.7008 215.982C78.8028 213.066 80.8263 207.822 83.0683 202.578C90.0793 186.143 92.2263 185.839 93.3758 185.677C96.0738 185.297 107.93 167.114 106.885 159.714C106.486 156.864 102.686 151.002 98.2588 144.989C87.2673 164.293 65.3793 168.663 52.4878 194.94C38.4183 223.611 59.1378 249.204 71.8108 267.662C81.7003 281.96 74.1003 293.189 70.4143 312.056ZM88.3503 323C94.2023 314.117 95.6083 309.595 95.9503 307.847C83.4673 304.655 73.5968 311.248 69.9963 314.155C69.023 319.62 68.565 325.164 68.6283 330.714C68.7233 338.314 70.3573 344.47 73.5683 349.657C77.9003 341.107 83.7048 330.058 88.3503 323ZM415.977 229.235C413.82 231.43 411.626 233.367 409.612 235.125L407.911 236.635C403.085 240.939 394.554 250.762 392.825 252.785C392.892 254.543 392.93 256.234 392.93 257.754C392.93 266.617 390.555 267.995 385.225 270.265C384.503 270.569 383.724 270.902 382.869 271.291C379.055 273.149 375.474 275.451 372.201 278.15C376.254 279.828 380.19 281.777 383.981 283.983L380.979 285.418L380.817 285.323L380.143 285.807C378.727 286.463 377.293 287.118 375.868 287.707C396.473 278.426 417.25 267.757 417.202 240.986C417.205 237.026 416.804 233.076 416.005 229.197L415.977 229.235ZM321.689 379.43C321.157 380.18 320.606 380.931 320.027 381.672C320.635 380.893 321.186 380.142 321.718 379.392L321.689 379.43ZM279.148 406.134L278.388 404.842C277.381 403.123 276.621 401.707 276.032 400.453C266.529 406.301 255.938 410.16 244.901 411.796C240.955 412.373 236.975 412.691 232.988 412.746C232.988 413.06 232.988 413.345 232.94 413.639C243.086 413.639 256.073 411.891 273.686 407.597C276.536 406.894 279.262 406.134 281.856 405.346L279.148 406.134ZM162.298 384.037C162.108 382.137 161.937 380.133 161.776 378.071C161.556 374.72 161.591 371.357 161.88 368.011C161.947 366.833 162.023 365.617 162.08 364.335C159.23 363.698 151.82 363.318 145.749 373.72C144.6 375.687 143.374 377.52 142.12 379.287L139.204 378.641C143.374 379.591 147.754 380.542 152.276 381.491C155.895 382.261 159.22 383.125 162.298 384.056V384.037ZM337.07 298.3C330.344 299.155 326.259 299.544 324.245 299.63L323.76 300.304C322.183 302.461 320.834 304.332 319.637 305.919C319.001 306.774 318.051 307.819 316.854 309.168C312.883 313.614 306.185 321.109 302.604 330.78C305.898 331.156 309.226 331.125 312.512 330.685C319.906 329.8 327.404 330.469 334.524 332.652C335.664 322.04 337.174 312.702 342.96 306.641C344.216 305.327 345.562 304.102 346.988 302.974C343.858 301.067 340.533 299.5 337.07 298.3ZM346.627 99.5125C341.544 103.854 337.839 103.673 330.477 103.312C328.083 103.198 325.252 103.056 321.803 103.037C326.496 107.046 335.36 115.149 337.212 120.745C338.162 123.728 341.516 127.214 345.373 130.15C350.408 133.95 356.374 136.8 359.366 136.42C361.637 136.097 363.28 135.954 364.724 135.84C367.195 135.682 369.647 135.301 372.049 134.7C371.156 116.954 362.482 103.92 350.322 96.4155C349.125 97.432 347.909 98.4485 346.627 99.541V99.5125ZM321.718 379.392C326.371 372.589 329.617 364.924 331.265 356.848C330.173 357.029 329.09 357.209 328.045 357.399C319.295 359.014 315.115 363.289 310.821 368.856C314.142 372.677 317.788 376.202 321.718 379.392ZM331.265 356.848C331.474 355.898 331.683 354.948 331.864 353.998C331.683 354.939 331.474 355.898 331.265 356.848ZM314.821 307.372C315.923 306.137 316.882 305.064 317.452 304.304C318.63 302.736 319.979 300.874 321.547 298.727L321.661 298.566C320.806 297.255 317.053 292.172 305.929 285.266C297.546 280.058 289.549 274.254 281.998 267.9L282.255 267.605C278.683 266.788 274.873 265.8 271.254 264.822C275.39 271.796 277.373 279.838 276.954 287.935C276.648 291.527 276.054 295.088 275.177 298.585C273.534 305.843 272.327 311.096 278.322 318.354C283.577 324.548 290.808 328.739 298.794 330.22C298.794 330.125 298.794 330.059 298.794 330.049L299.868 330.362C303.544 319.988 310.65 312.065 314.821 307.372ZM312.921 333.421C309.216 333.904 305.464 333.904 301.758 333.421C300.199 338.629 299.858 344.125 300.761 349.486C301.825 355.671 305.007 361.484 309.045 366.662C313.339 361.18 318.184 356.402 327.551 354.673C328.947 354.416 330.401 354.179 331.864 353.951C333.07 347.643 333.659 341.373 334.258 335.454C327.37 333.274 320.095 332.59 312.921 333.45V333.421ZM228.751 384.721C227.497 380.874 223.545 376.171 218.795 371.042C211.831 374.576 203.804 378.594 197.059 379.886C199.569 384.869 201.482 390.13 202.759 395.561C205.058 404.529 215.242 409.649 230.375 409.972C230.698 401.08 230.632 390.45 228.751 384.75V384.721ZM335.436 280.421C339.749 275.139 339.996 271.757 339.644 270.028C325.727 266.57 312.655 264.556 309.149 264.043C305.477 266.676 301.254 268.44 296.799 269.201C295.902 269.326 294.998 269.389 294.092 269.391C291.768 269.319 289.455 269.052 287.176 268.593C293.624 273.778 300.374 278.575 307.392 282.957C317.338 289.113 321.642 293.939 323.39 296.257C326.8 291.517 330.847 286.026 335.436 280.421ZM281.884 405.298C300.827 399.465 312.598 391.124 320.055 381.634C316.114 378.454 312.453 374.942 309.111 371.137C309.016 371.25 308.931 371.365 308.845 371.488C306.048 375.47 302.866 379.167 299.345 382.527C292.87 388.606 285.877 394.108 278.445 398.971C279.154 400.494 279.944 401.979 280.811 403.417C281.159 404.057 281.517 404.684 281.884 405.298ZM232.969 413.592C232.019 413.592 231.126 413.592 230.242 413.544C230.242 413.259 230.242 412.984 230.242 412.689C213.836 412.3 202.692 406.438 200.089 396.235C197.676 386.849 195.007 381.814 194.095 380.256C192.317 380.417 190.525 380.207 188.832 379.639C181.061 376.789 169.157 368.771 164.74 365.702C164.74 366.538 164.645 367.346 164.597 368.144C164.323 371.364 164.288 374.6 164.493 377.824C164.683 380.285 164.901 382.679 165.12 384.902C197.258 395.551 200.517 413.582 232.969 413.592ZM164.702 93.689C165.566 94.5725 166.402 95.4085 167.238 96.2445C167.932 91.941 170.136 80.6455 174.981 74.2045C177.157 71.2258 178.927 67.9703 180.244 64.524C181.194 64.524 182.21 64.524 183.179 64.524C170.489 64.2453 157.883 66.6371 146.177 71.5445C151.79 79.3782 157.982 86.7805 164.702 93.689ZM388.636 231.933C388.636 231.79 388.066 223.05 387.79 221.112C387.619 219.887 387.087 208.952 386.65 196.916C384.37 202.245 380.893 209.864 378.528 212.477C377.578 213.522 376.029 216.686 374.234 220.352C373.436 221.986 372.552 223.773 371.602 225.644C377.846 229.803 383.763 234.434 389.301 239.495C388.949 235.163 388.645 231.999 388.636 231.933ZM298.908 94.05C297.577 98.0548 296.935 102.256 297.008 106.476C300.077 104.025 306.413 100.586 317.956 100.348C323.266 100.234 327.313 100.434 330.553 100.595C337.64 100.937 340.566 101.08 344.803 97.4415L347.729 94.9715C348.593 95.4275 349.429 95.9215 350.256 96.425C340.952 90.8021 330.11 88.2588 319.276 89.1575C312.826 90.7831 306.228 91.7569 299.583 92.0645C299.383 92.7485 299.146 93.4135 298.908 94.05ZM146.177 71.554C145.417 71.8675 144.666 72.1905 143.906 72.504C144.666 72.2 145.417 71.8675 146.177 71.554ZM407.845 233.054C410.436 230.845 412.91 228.502 415.255 226.033C410.685 208.838 399 195.215 388.911 181.887C389.31 198.275 390.346 219.659 390.498 220.742C390.792 222.794 391.334 231.363 391.362 231.724C391.362 231.809 392.217 240.417 392.673 248.824C395.951 245.072 402.173 238.156 406.116 234.574L407.845 233.054ZM115.463 98.5435C116.831 103.721 120.964 108.319 124.612 112.375C128.26 116.432 131.613 120.175 130.996 123.642C132.744 124.592 138.216 127.025 151.706 128.687C153.571 128.916 155.454 128.977 157.33 128.867L157.881 128.307C158.045 128.467 158.2 128.635 158.346 128.81C167.438 127.965 175.266 122.797 181.697 113.401C179.142 111.235 171.77 104.804 162.745 95.5985C155.796 88.4514 149.406 80.7814 143.631 72.656L143.906 72.5325C128.402 79.5245 119.833 87.191 114.694 95.3325C114.95 96.387 115.178 97.47 115.463 98.5435ZM416.005 229.197C415.787 228.123 415.53 227.069 415.255 226.014C415.53 227.05 415.787 228.123 416.005 229.197Z" fill="white"/>
</g>
<g id="freepik--Shadow--inject-1--inject-142">
<path id="Vector_3" d="M350.627 249.897C357.989 244.254 363.708 234.868 368.021 226.622C363.193 223.48 357.995 220.946 352.546 219.079C343.34 216.163 331.171 213.788 321.395 211.888C312.199 210.102 307.202 209.038 304.694 208.088C303.886 209.217 303.138 210.387 302.452 211.593C303.069 213.526 304.014 215.339 305.245 216.951C307.145 219.412 309.197 221.853 311.211 224.209C318.593 232.826 325.556 240.967 321.519 249.755C319.303 254.373 316.114 258.456 312.171 261.725C317.348 262.532 327.532 264.271 338.495 266.921C338.201 264.404 339.293 258.599 350.627 249.897Z" fill="#1E3541"/>
<path id="Vector_4" d="M319.038 248.634C322.344 241.433 315.932 233.938 309.139 226.005C307.087 223.621 304.978 221.151 303.069 218.624C302.175 217.441 301.407 216.167 300.779 214.824C297.286 222.417 296.166 230.888 297.568 239.128C298.97 247.368 302.828 254.992 308.636 261.003C313.057 257.787 316.627 253.541 319.038 248.634Z" fill="#1E3541"/>
<path id="Vector_5" d="M339.645 270.028C328.625 267.292 318.137 265.458 312.513 264.565C320.105 270.673 329.609 273.906 339.35 273.695C339.755 272.517 339.856 271.256 339.645 270.028Z" fill="#1E3541"/>
<path id="Vector_6" d="M353.229 271.006C360.636 268.19 367.083 263.315 371.811 256.956C376.539 250.597 379.35 243.019 379.914 235.115C377.131 232.902 373.872 230.451 370.329 228.104C365.902 236.55 360.002 246.154 352.279 252.073C340.337 261.24 341.097 266.323 341.268 267.026C341.431 267.253 341.577 267.491 341.705 267.738C345.572 268.717 349.467 269.8 353.229 271.006Z" fill="#1E3541"/>
<path id="Vector_7" d="M348.651 272.46C346.627 271.862 344.575 271.292 342.533 270.76C342.57 271.695 342.48 272.631 342.267 273.543C342.951 273.486 343.644 273.401 344.338 273.306C345.789 273.099 347.229 272.817 348.651 272.46Z" fill="#1E3541"/>
<path id="Vector_8" d="M371.783 219.146C373.113 216.429 374.205 214.216 375.136 212.629C371.918 206.608 367.264 201.474 361.588 197.68C355.912 193.886 349.388 191.55 342.594 190.878C335.8 190.207 328.945 191.22 322.636 193.829C316.327 196.438 310.758 200.562 306.423 205.837C309.425 206.787 315.98 208.05 321.917 209.209C331.759 211.109 344.014 213.503 353.372 216.477C358.976 218.388 364.323 220.982 369.294 224.2C370.187 222.395 371.023 220.704 371.783 219.146Z" fill="#1E3541"/>
<path id="Vector_9" d="M376.581 215.65C375.878 216.989 375.089 218.604 374.234 220.343C373.379 222.081 372.553 223.763 371.603 225.634C374.643 227.629 377.483 229.71 380.001 231.657C379.952 226.146 378.789 220.7 376.581 215.65Z" fill="#1E3541"/>
<path id="Vector_10" d="M242.697 244.824C242.064 246.739 240.897 248.434 239.334 249.708C246.668 253.859 254.819 258.077 256.329 258.257C257.279 258.162 259.322 258.695 266.457 260.671L267.862 261.06C264.53 244.027 256.356 228.317 244.321 215.811C243.96 220.485 243.904 225.074 243.866 229.225C243.809 235.533 243.751 241.005 242.697 244.824Z" fill="#1E3541"/>
<path id="Vector_11" d="M186.305 193.135L185.925 193.373C188.575 199.206 193.107 204.45 197.543 209.589C199.244 211.556 201.001 213.598 202.616 215.622C210.074 224.998 221.008 248.872 223.697 254.847C232.38 251.769 238.897 248.197 240.065 244.093C241.015 240.626 241.072 235.315 241.129 229.169C241.177 224.276 241.234 218.804 241.775 213.256C233.248 205.098 223.083 198.848 211.955 194.921C213.123 193.24 214.672 190.608 216.306 187.597C205.096 186.476 187.967 192.537 186.305 193.135Z" fill="#1E3541"/>
<path id="Vector_12" d="M268.698 265.867C268.517 265.563 268.403 265.401 268.394 265.392L268.603 265.249C268.536 264.841 268.479 264.433 268.403 264.024L265.724 263.283C261.601 262.134 257.336 260.955 256.557 260.946C254.571 261.231 244.976 256.073 237.3 251.693L237.661 251.056C235.846 252.338 233.919 253.454 231.904 254.391C234.898 259.113 237.561 264.036 239.875 269.126C242.297 274.75 243.561 284.953 244.786 294.776C245.157 297.768 245.546 300.865 245.955 303.762C246.696 309.006 249.099 311.723 252.149 315.162C254.471 317.646 256.527 320.365 258.286 323.276C267.928 305.936 271.6 285.907 268.736 266.276C268.745 266.133 268.717 266 268.698 265.867Z" fill="#1E3541"/>
<path id="Vector_13" d="M239.79 345.971C246.43 340.246 252.13 333.514 256.681 326.021C254.893 322.735 252.683 319.698 250.107 316.986C247.019 313.509 244.103 310.222 243.248 304.161C242.839 301.245 242.45 298.138 242.079 295.127C240.873 285.456 239.628 275.452 237.329 270.18C235.02 265.129 232.37 260.241 229.397 255.55C222.899 258.324 214.71 260.68 206.293 262.779C207.727 266.475 211.679 278.103 210.397 290.728C212.392 292.448 240.502 316.834 239.685 330.989C239.445 335.981 239.48 340.983 239.79 345.971Z" fill="#1E3541"/>
<path id="Vector_14" d="M198.265 169.908C197.515 170.364 196.812 170.858 196.156 171.219C194.284 167.61 191.747 164.386 188.68 161.719C188.129 163.885 187.454 165.965 186.78 168.017C185.374 172.321 183.93 176.757 183.626 181.887C183.476 184.9 183.911 187.913 184.908 190.76H184.975L185.231 190.627C186.067 190.314 205.314 183.246 217.674 185.022C221.018 178.6 224.324 171.266 225.274 167.647C226.832 161.291 224.818 157.9 220.258 160.379C215.698 162.859 202.227 167.514 198.265 169.908Z" fill="#1E3541"/>
<path id="Vector_15" d="M197.401 364.468C197.581 365.883 197.828 367.47 198.199 369.284C198.708 371.661 199.463 373.979 200.45 376.2C205.78 374.509 211.755 371.555 216.866 368.971L214.349 366.33C206.967 358.616 198.607 349.876 195.187 341.44C189.155 326.563 183.369 322.544 183.312 322.506L183.949 321.556C178.775 323.447 173.308 324.412 167.799 324.406C164.68 324.452 161.594 325.057 158.688 326.192C160.32 330.047 161.559 334.058 162.384 338.162C164.521 348.85 164.996 355.766 164.949 361.2C175.412 364.577 186.474 365.691 197.401 364.468Z" fill="#1E3541"/>
<path id="Vector_16" d="M233.016 412.699C233.016 413.013 233.016 413.297 232.969 413.592C238.351 413.551 243.724 413.148 249.052 412.386C248.786 411.987 248.52 411.597 248.235 411.208C247.143 411.417 246.05 411.607 244.929 411.759C240.983 412.332 237.004 412.646 233.016 412.699Z" fill="#1E3541"/>
<path id="Vector_17" d="M244.549 409.051C245.109 408.975 245.66 408.88 246.211 408.794C243.757 406.154 240.865 403.959 237.661 402.306C238.003 393.167 239.124 376.285 237.509 369.863C236.862 367.782 235.817 365.846 234.431 364.163C232.845 364.752 231.382 365.323 229.985 365.874L227.838 366.7C226.119 367.365 223.877 368.457 221.293 369.759C226.043 374.889 229.957 379.686 231.315 383.876C233.31 389.994 233.386 400.89 233.082 409.982C236.92 409.91 240.75 409.599 244.549 409.051Z" fill="#1E3541"/>
<path id="Vector_18" d="M228.751 384.75C227.497 380.903 223.545 376.2 218.795 371.07C213.342 373.844 207.243 376.893 201.609 378.717C204.598 384.567 208.81 389.706 213.959 393.785C219.232 397.746 227.126 403.284 230.527 405.906C230.632 398.05 230.347 389.624 228.751 384.75Z" fill="#1E3541"/>
<path id="Vector_19" d="M139.651 178.087C140.083 181.188 140.083 184.334 139.651 187.435C139.071 191.235 137.751 194.142 135.851 195.842C142.385 199.635 149.925 201.329 157.454 200.697C167.733 199.747 177.917 194.731 182.477 192.204C181.241 188.865 180.704 185.309 180.9 181.754C181.213 176.273 182.724 171.656 184.187 167.191C184.975 164.749 185.754 162.355 186.324 159.875C181.7 156.614 176.384 154.468 170.792 153.606C167.888 153.153 164.934 153.127 162.023 153.53C161.938 153.872 161.862 154.213 161.776 154.565C157.91 169.404 144.306 176.159 139.651 178.087Z" fill="#1E3541"/>
<path id="Vector_20" d="M229.026 363.327C230.176 362.872 231.373 362.378 232.636 361.931C230.679 359.699 228.399 357.466 226.233 355.385C230.078 353.268 233.741 350.837 237.187 348.118C236.765 342.358 236.689 336.578 236.959 330.809C237.605 319.409 215.764 299.155 209.941 293.949C209.893 294.234 209.846 294.528 209.789 294.813C207.556 306.118 197.933 315.922 185.64 320.881C187.54 322.563 192.584 327.778 197.705 340.413C200.925 348.355 209.105 356.905 216.306 364.439L219.384 367.678C222.338 366.187 224.894 364.924 226.898 364.154L229.026 363.327Z" fill="#1E3541"/>
<path id="Vector_21" d="M136.335 344.916C136.924 345.423 137.513 345.917 138.102 346.398C145.288 352.306 153.42 356.957 162.156 360.154C162.025 352.904 161.182 345.684 159.639 338.599C158.842 334.662 157.645 330.817 156.067 327.123C147.517 330.923 139.337 337.867 134.103 342.864C134.806 343.52 135.509 344.194 136.24 344.831L136.335 344.916Z" fill="#1E3541"/>
<path id="Vector_22" d="M138.786 302.983C136.421 306.246 133.248 308.839 129.58 310.508C130.618 319.712 130.771 328.995 130.036 338.228C130.036 338.418 130.036 338.599 129.97 338.779C130.682 339.539 131.404 340.271 132.136 340.993C137.494 335.844 145.939 328.643 154.936 324.662C150.985 316.472 145.503 309.113 138.786 302.983Z" fill="#1E3541"/>
<path id="Vector_23" d="M123.576 312.199C119.914 312.638 116.207 312.535 112.575 311.895C112.784 312.389 112.993 312.845 113.212 313.377C113.297 313.586 113.392 313.795 113.487 314.004C113.753 314.602 114.029 315.191 114.304 315.78L114.466 316.122C115.15 317.566 115.881 318.972 116.641 320.388C116.708 320.511 116.774 320.635 116.85 320.758C117.154 321.322 117.471 321.882 117.8 322.44L118.085 322.915C118.389 323.434 118.706 323.956 119.035 324.482L119.32 324.947C119.662 325.489 120.004 326.031 120.356 326.563L120.574 326.904C121.892 328.899 123.282 330.831 124.745 332.699L124.821 332.795C125.277 333.374 125.771 333.944 126.208 334.514L126.388 334.733C126.749 335.17 127.11 335.588 127.481 336.015C128.004 327.836 127.833 319.627 126.968 311.477C125.856 311.8 124.723 312.041 123.576 312.199Z" fill="#1E3541"/>
<path id="Vector_24" d="M139.147 175.294C143.897 173.213 155.667 166.848 159.097 154.033C154.277 155.143 149.637 156.924 145.312 159.324L144.362 159.856C141.226 161.505 138.233 163.412 135.413 165.556C137.247 168.544 138.513 171.846 139.147 175.294Z" fill="#1E3541"/>
<path id="Vector_25" d="M189.468 263.872C199.5 261.611 211.318 258.942 221.093 255.731C218.243 249.508 207.546 226.204 200.478 217.322C198.901 215.336 197.163 213.323 195.472 211.375C190.95 206.15 186.342 200.792 183.54 194.75C178.999 197.258 169.717 201.78 159.79 203.176C159.087 203.281 158.374 203.367 157.671 203.424C149.068 204.204 140.449 202.102 133.171 197.448C128.554 200.041 124.032 210.235 121.571 216.98C122.808 217.915 124.096 218.781 125.428 219.574C124.982 220.115 124.564 220.685 124.127 221.236H124.212L126.426 221.559C132.297 222.405 136.933 223.07 148.276 228.314C159.932 233.719 171.076 261.478 173.403 267.691C177.773 266.513 183.464 265.231 189.468 263.872Z" fill="#1E3541"/>
<path id="Vector_26" d="M167.79 321.604C186.476 321.727 204.108 309.482 207.11 294.282C209.799 280.602 204.916 266.732 203.614 263.416C199.045 264.518 194.456 265.554 190.077 266.542C183.531 268.014 177.356 269.392 172.977 270.684C157.397 275.196 151.212 284.487 143.394 296.258C142.444 297.711 141.418 299.212 140.392 300.723C147.579 307.135 153.412 314.919 157.549 323.618C160.814 322.338 164.283 321.656 167.79 321.604Z" fill="#1E3541"/>
<path id="Vector_27" d="M141.104 294.747C148.704 283.347 155.268 273.439 170.791 268.489C168.369 262.2 157.624 235.667 147.146 230.812C136.192 225.739 131.727 225.112 126.075 224.276L123.842 223.953C123.338 223.869 122.839 223.751 122.351 223.602C119.826 227.061 117.562 230.703 115.577 234.498C111.919 241.527 109.216 249.012 107.54 256.756C108.488 259.198 109.709 261.524 111.179 263.692C117.135 272.783 133.903 293.199 138.453 298.699C139.356 297.35 140.239 296.039 141.104 294.747Z" fill="#1E3541"/>
<path id="Vector_28" d="M108.196 264.1C107.616 263.15 107.122 262.276 106.657 261.392C106.419 262.855 106.21 264.328 106.049 265.81C106.894 265.097 107.635 264.508 108.196 264.1Z" fill="#1E3541"/>
<path id="Vector_29" d="M126.977 176.092C125.361 180.357 124.75 184.938 125.191 189.478C120.973 188.974 114.608 188.309 110.058 188.195C103.465 188.034 99.2753 187.54 98.5723 189.82C102.32 193.54 105.519 197.775 108.072 202.398C108.813 203.813 109.583 205.248 110.371 206.663C113.203 209.677 116.2 212.532 119.349 215.213C121.866 208.402 126.854 197.049 132.829 194.617C134.815 193.81 136.316 191.055 136.924 187.017C137.874 180.918 136.563 172.615 133.304 167.371C130.559 169.759 128.395 172.742 126.977 176.092Z" fill="#1E3541"/>
<path id="Vector_30" d="M136.801 301.036C133.191 296.685 116.604 276.574 109.669 266.399C108.719 267.131 107.227 268.299 105.66 269.781C105.603 270.655 105.546 271.52 105.517 272.394V272.451C105.46 273.79 105.432 275.139 105.441 276.488V276.612C105.441 277.951 105.441 279.3 105.546 280.649C105.546 280.697 105.546 280.744 105.546 280.792C105.612 282.15 105.707 283.518 105.84 284.886C105.973 286.321 106.144 287.736 106.344 289.199C106.458 290.016 106.591 290.824 106.724 291.631L106.866 292.41C106.961 292.961 107.056 293.503 107.161 294.054C107.227 294.348 107.284 294.652 107.351 294.947C107.446 295.45 107.56 295.954 107.664 296.457C107.731 296.761 107.807 297.065 107.873 297.407C107.997 297.911 108.111 298.414 108.244 298.908C108.31 299.193 108.377 299.478 108.453 299.763C108.595 300.314 108.747 300.875 108.909 301.426C108.966 301.644 109.023 301.863 109.089 302.081C109.317 302.86 109.545 303.63 109.783 304.399C109.878 304.713 109.992 305.026 110.096 305.349C110.096 305.444 110.153 305.549 110.191 305.644C110.305 305.986 110.41 306.327 110.533 306.66C110.657 306.992 110.676 307.078 110.752 307.287C110.942 307.828 111.141 308.37 111.341 308.902V308.978C121.933 310.868 130.36 309.748 136.801 301.036Z" fill="#1E3541"/>
</g>
<g id="freepik--Ball--inject-1--inject-142">
<path id="Vector_31" d="M298.462 154.698C291.077 165.591 286.789 178.285 286.055 191.425" stroke="#21261C" stroke-width="0.75" stroke-linecap="round" stroke-linejoin="round"/>
<path id="Vector_32" d="M312.37 139.489C309.753 141.634 307.289 143.961 304.998 146.452" stroke="#21261C" stroke-width="0.75" stroke-linecap="round" stroke-linejoin="round"/>
<path id="Vector_33" d="M429.4 209C431.802 196.427 430.831 183.442 426.586 171.366C422.341 159.29 414.973 148.553 405.232 140.249" stroke="#21261C" stroke-width="0.75" stroke-linecap="round" stroke-linejoin="round"/>
<path id="Vector_34" d="M417.592 236.921C420.753 232.404 423.386 227.54 425.439 222.424" stroke="#21261C" stroke-width="0.75" stroke-linecap="round" stroke-linejoin="round"/>
<path id="Vector_35" d="M315.78 253.964C320.184 257.154 324.932 259.841 329.935 261.972" stroke="#21261C" stroke-width="0.75" stroke-linecap="round" stroke-linejoin="round"/>
<path id="Vector_36" d="M344.186 249.375C346.537 250 348.926 250.47 351.339 250.781" stroke="#21261C" stroke-width="0.75" stroke-linecap="round" stroke-linejoin="round"/>
<path id="Vector_37" d="M307.658 218.548C310.808 225.398 315.304 231.546 320.877 236.625C326.45 241.703 332.988 245.61 340.101 248.112" stroke="#21261C" stroke-width="0.75" stroke-linecap="round" stroke-linejoin="round"/>
<path id="Vector_38" d="M303.154 203.234C303.526 205.828 304.082 208.393 304.817 210.91" stroke="#21261C" stroke-width="0.75" stroke-linecap="round" stroke-linejoin="round"/>
<path id="Vector_39" d="M336.11 143.878C326.145 148.251 317.669 155.43 311.716 164.54C305.762 173.649 302.59 184.295 302.585 195.178" stroke="#21261C" stroke-width="0.75" stroke-linecap="round" stroke-linejoin="round"/>
<path id="Vector_40" d="M409.906 172.577C404.258 159.82 394.06 149.623 381.302 143.977C368.544 138.33 354.139 137.638 340.898 142.035" stroke="#21261C" stroke-width="0.75" stroke-linecap="round" stroke-linejoin="round"/>
<path id="Vector_41" d="M380.38 246.877C392.235 241.863 402.007 232.929 408.06 221.57C414.113 210.211 416.079 197.117 413.63 184.481" stroke="#21261C" stroke-width="0.75" stroke-linecap="round" stroke-linejoin="round"/>
<path id="Vector_42" d="M396.129 230.891C416.066 210.953 416.066 178.628 396.129 158.691C376.191 138.753 343.866 138.753 323.929 158.691C303.992 178.628 303.992 210.953 323.929 230.891C343.866 250.828 376.191 250.828 396.129 230.891Z" fill="#4E6D43" stroke="#21261C" stroke-linecap="round" stroke-linejoin="round"/>
<path id="Vector_43" d="M350.55 183.35C350.829 184.87 350.647 186.438 350.027 187.854C349.407 189.269 348.378 190.466 347.072 191.292C345.766 192.117 344.242 192.533 342.698 192.486C341.154 192.439 339.659 191.931 338.405 191.027C337.152 190.123 336.198 188.865 335.666 187.414C335.134 185.963 335.048 184.387 335.419 182.887C335.79 181.387 336.602 180.032 337.749 178.998C338.897 177.963 340.328 177.295 341.858 177.08C343.841 176.765 345.869 177.247 347.497 178.422C349.126 179.597 350.224 181.368 350.55 183.35Z" fill="white" stroke="#21261C" stroke-linecap="round" stroke-linejoin="round"/>
<path id="Vector_44" d="M311.229 209.779C313.518 217.215 317.476 224.03 322.8 229.704C328.125 235.377 334.675 239.758 341.952 242.513C349.228 245.269 357.038 246.324 364.785 245.6C372.531 244.876 380.01 242.392 386.65 238.336C352.593 225.036 346.028 186.447 346.028 186.447L340.689 184.072C323.418 191.245 315.162 201.4 311.229 209.779Z" fill="#37482A" stroke="#21261C" stroke-linecap="round" stroke-linejoin="round"/>
<path id="Vector_45" d="M406.601 173.85C403.631 167.253 399.294 161.362 393.877 156.568C388.46 151.773 382.086 148.184 375.177 146.038C368.268 143.893 360.982 143.239 353.802 144.121C346.622 145.003 339.711 147.401 333.527 151.155C332.814 157.045 333.281 163.018 334.899 168.726C336.517 174.434 339.254 179.764 342.951 184.405L346.057 186.466C346.057 186.466 368.278 158.565 406.601 173.85Z" fill="#37482A" stroke="#21261C" stroke-linecap="round" stroke-linejoin="round"/>
<path id="Vector_46" d="M350.55 183.35C350.829 184.87 350.647 186.438 350.027 187.854C349.407 189.269 348.378 190.466 347.072 191.292C345.766 192.117 344.242 192.533 342.698 192.486C341.154 192.439 339.659 191.931 338.405 191.027C337.152 190.123 336.198 188.865 335.666 187.414C335.134 185.963 335.048 184.387 335.419 182.887C335.79 181.387 336.602 180.032 337.749 178.998C338.897 177.963 340.328 177.295 341.858 177.08C343.841 176.765 345.869 177.247 347.497 178.422C349.126 179.597 350.224 181.368 350.55 183.35Z" fill="white" stroke="#21261C" stroke-linecap="round" stroke-linejoin="round"/>
<path id="Vector_47" opacity="0.6" d="M393.739 201.138C400.317 200.21 404.918 194.282 404.017 187.897C403.117 181.512 397.055 177.088 390.477 178.016C383.9 178.944 379.299 184.872 380.199 191.257C381.1 197.642 387.162 202.066 393.739 201.138Z" fill="white"/>
</g>
<g id="freepik--Character--inject-1--inject-142">
<path id="Vector_48" d="M265.145 181.592C265.145 181.592 283.309 190.513 286.425 244.492" stroke="white" stroke-width="6" stroke-linecap="round" stroke-linejoin="round"/>
<path id="Vector_49" d="M99.9585 192.764C96.5953 201.763 94.3151 211.129 93.166 220.666" stroke="#ACCEA0" stroke-width="0.75" stroke-linecap="round" stroke-linejoin="round"/>
<path id="Vector_50" d="M113.164 167.2C109.455 172.665 106.202 178.426 103.436 184.424" stroke="#ACCEA0" stroke-width="0.75" stroke-linecap="round" stroke-linejoin="round"/>
<path id="Vector_51" d="M310.801 164.578C305.119 156.665 298.496 149.471 291.079 143.156" stroke="#ACCEA0" stroke-width="0.75" stroke-linecap="round" stroke-linejoin="round"/>
<path id="Vector_52" d="M311.723 304.238C321.154 290.747 327.729 275.472 331.046 259.35" stroke="#ACCEA0" stroke-width="0.75" stroke-linecap="round" stroke-linejoin="round"/>
<path id="Vector_53" d="M204.914 355.385C210.583 355.77 216.272 355.751 221.938 355.328" stroke="#ACCEA0" stroke-width="0.75" stroke-linecap="round" stroke-linejoin="round"/>
<path id="Vector_54" d="M142.024 332.652C155.462 342.39 170.761 349.256 186.969 352.821" stroke="#ACCEA0" stroke-width="0.75" stroke-linecap="round" stroke-linejoin="round"/>
<path id="Vector_55" d="M189.506 324.435C193.414 325.484 197.387 326.274 201.4 326.8" stroke="#ACCEA0" stroke-width="0.75" stroke-linecap="round" stroke-linejoin="round"/>
<path id="Vector_56" d="M128.99 273.362C134.204 284.713 141.646 294.899 150.875 303.315C160.104 311.731 170.931 318.206 182.713 322.354" stroke="#ACCEA0" stroke-width="0.75" stroke-linecap="round" stroke-linejoin="round"/>
<path id="Vector_57" d="M121.523 247.95C122.143 252.249 123.06 256.499 124.269 260.671" stroke="#ACCEA0" stroke-width="0.75" stroke-linecap="round" stroke-linejoin="round"/>
<path id="Vector_58" d="M176.13 149.644C159.611 156.894 145.561 168.799 135.697 183.903C125.832 199.007 120.581 216.657 120.583 234.698" stroke="#ACCEA0" stroke-width="0.75" stroke-linecap="round" stroke-linejoin="round"/>
<path id="Vector_59" d="M256.719 152.532C245.631 146.704 233.481 143.173 220.997 142.152C208.512 141.13 195.95 142.638 184.062 146.585" stroke="#ACCEA0" stroke-width="0.75" stroke-linecap="round" stroke-linejoin="round"/>
<path id="Vector_60" d="M284.477 174.914C279.043 168.456 272.757 162.768 265.79 158.004" stroke="#ACCEA0" stroke-width="0.75" stroke-linecap="round" stroke-linejoin="round"/>
<path id="Vector_61" d="M288.657 180.253C287.327 178.42 285.94 176.643 284.477 174.914" stroke="#ACCEA0" stroke-width="0.75" stroke-linecap="round" stroke-linejoin="round"/>
<path id="Vector_62" d="M300.199 267.729C302.188 262.55 303.705 257.202 304.731 251.75" stroke="#ACCEA0" stroke-width="0.75" stroke-linecap="round" stroke-linejoin="round"/>
<path id="Vector_63" d="M277.229 302.167C287.378 292.561 295.229 280.789 300.2 267.729" stroke="#ACCEA0" stroke-width="0.75" stroke-linecap="round" stroke-linejoin="round"/>
<path id="Vector_64" d="M249.47 320.292C256.676 317.263 263.466 313.327 269.676 308.579" stroke="#ACCEA0" stroke-width="0.75" stroke-linecap="round" stroke-linejoin="round"/>
<path id="Vector_65" d="M201.713 149.083C156.873 155.41 125.979 199.243 132.724 246.99C139.469 294.737 181.279 328.292 226.119 321.965C270.959 315.637 301.853 271.795 295.108 224.058C288.363 176.32 246.553 142.756 201.713 149.083ZM218.167 265.62C202.559 267.824 187.995 256.12 185.649 239.514C183.302 222.908 194.056 207.632 209.665 205.428C225.273 203.224 239.837 214.928 242.183 231.534C244.53 248.14 233.776 263.407 218.167 265.62Z" fill="#5F483B" stroke="black" stroke-linecap="round" stroke-linejoin="round"/>
<path id="Vector_66" d="M241.376 244.454C256.139 240.768 272.574 236.854 290.776 232.798C290.703 228.896 290.385 225.003 289.826 221.141C289.636 219.83 289.417 218.529 289.18 217.246C271.7 221.141 255.81 224.862 241.509 228.409C241.756 229.425 241.965 230.47 242.117 231.534C242.757 235.846 242.504 240.243 241.376 244.454Z" fill="#ACCEA0"/>
<path id="Vector_67" d="M135.194 209.237C154.973 202.074 195.899 188.86 267.092 172.396C262.778 167.682 257.95 163.463 252.7 159.818C199.718 172.349 164.711 182.799 143.136 190.019C139.74 196.089 137.074 202.54 135.194 209.237Z" fill="#ACCEA0"/>
<path id="Vector_68" d="M180.557 226.708C181.195 222.763 182.617 218.986 184.738 215.599C186.859 212.212 189.637 209.283 192.907 206.986C163.305 215.232 143.811 221.806 132.107 226.119C131.638 231.627 131.664 237.165 132.183 242.668C140.742 239.4 156.227 233.881 180.557 226.708Z" fill="#ACCEA0"/>
<path id="Vector_69" d="M277.295 185.934C251.265 191.824 229.016 197.334 210.149 202.312C215.208 202.696 220.066 204.454 224.2 207.394C227.179 208.676 229.921 210.449 232.313 212.638C247.722 208.734 265.04 204.592 284.411 200.231C282.468 195.264 280.087 190.479 277.295 185.934Z" fill="#ACCEA0"/>
<path id="Vector_70" d="M255.35 305.216C263.283 299.5 270.14 292.424 275.604 284.316C229.833 295.07 197.191 304.323 174.904 311.372C183.46 315.674 192.728 318.381 202.255 319.362C216.875 315.163 234.479 310.403 255.35 305.216Z" fill="#ACCEA0"/>
<path id="Vector_71" d="M192.698 257.45C188.134 254.067 184.596 249.487 182.476 244.216C160.246 250.714 145.017 255.93 135.375 259.511C136.787 264.498 138.624 269.355 140.866 274.027C151.097 270.246 167.846 264.556 192.698 257.45Z" fill="#ACCEA0"/>
<path id="Vector_72" d="M285.36 265.24C287.369 259.763 288.839 254.102 289.749 248.34C263.776 254.182 241.518 259.645 222.556 264.632C221.786 264.87 221.007 265.069 220.209 265.249C186.152 274.255 163.019 281.637 148.37 286.786C151.571 291.355 155.2 295.608 159.21 299.488C182.219 291.698 222.299 279.671 285.36 265.24Z" fill="#ACCEA0"/>
<g id="Group" style="mix-blend-mode:multiply" opacity="0.6">
<path id="Vector_73" d="M236.379 297.654C237.072 296.02 246.553 276.279 240.53 255.351C240.055 253.688 239.533 252.083 238.991 250.544C236.981 254.54 234.04 257.996 230.416 260.619C226.792 263.243 222.592 264.958 218.167 265.62C211.2 266.576 204.132 264.825 198.417 260.728C191.257 257.59 185.592 251.802 182.609 244.578C181.478 251.551 180.709 259.398 181.716 264.604C183.891 275.652 190.655 288.8 198.16 296.333C205.665 303.867 214.538 312.417 215.992 316.208C216.392 317.274 216.629 318.395 216.695 319.533C218.091 319.409 219.488 319.266 220.894 319.067C227.649 318.12 234.249 316.279 240.521 313.595C239.482 312.58 238.667 311.361 238.127 310.013C236.844 305.254 235.695 299.25 236.379 297.654Z" fill="#4D6A79"/>
<path id="Vector_74" d="M172.681 196.232C173.412 197.049 180.281 210.805 183.473 216.182C183.634 216.458 183.777 216.733 183.919 217.018C185.967 213.165 188.891 209.846 192.454 207.328C196.018 204.81 200.123 203.164 204.439 202.521C207.864 202.033 211.351 202.211 214.709 203.044C214.62 201.143 214.668 199.238 214.851 197.344C215.507 191.121 210.804 181.669 212.742 178.021C214.68 174.373 227.619 163.951 231.02 159.79C232.833 157.297 234.456 154.67 235.875 151.934C227.691 149.354 219.135 148.15 210.557 148.371C209.721 154.347 208.04 161.576 204.639 166.279C197.989 175.503 176.443 179.465 167.484 170.297C166.04 168.825 164.634 167.4 163.19 166.041C156.855 171.236 151.32 177.338 146.765 184.148L147.401 184.481C155.638 188.518 171.949 195.415 172.681 196.232Z" fill="#4D6A79"/>
</g>
<path id="Vector_75" d="M264.508 368.866C264.508 368.866 271.842 383.116 276.611 384.19C281.38 385.263 279.157 374.604 273.998 368.239C271.019 364.493 267.193 361.508 262.836 359.528C262.836 359.528 262.978 365.541 264.508 368.866Z" fill="white" stroke="black" stroke-linecap="round" stroke-linejoin="round"/>
<path id="Vector_76" d="M155.989 147.82C155.989 147.82 143.791 146.167 136.41 145.977C129.028 145.787 124.639 145.188 124.81 148.542C124.981 151.895 126.473 153.824 132.22 159.761C137.968 165.699 145.644 174.429 153.88 178.476C162.117 182.523 178.428 189.43 179.16 190.247C179.891 191.064 186.76 204.82 189.952 210.197C193.144 215.574 192.251 222.148 192.118 223.392C191.985 224.637 186.019 247.56 188.194 258.599C190.37 269.638 197.134 282.796 204.639 290.329C212.144 297.863 221.017 306.423 222.47 310.203C223.924 313.984 222.546 317.243 224.551 327.085C226.555 336.927 233.747 346.636 240.273 351.547C246.8 356.459 257.373 363.897 258.418 364.933C259.463 365.968 259.083 378.337 261.05 383.581C263.016 388.825 260.822 392.815 262.446 393.499C264.071 394.183 266.702 395.399 268.593 391.41C270.483 387.419 269.305 379.059 267.89 375.563C266.474 372.067 264.593 369.588 264.042 365.674C263.491 361.76 265.942 335.958 263.89 327.674C261.838 319.39 245.84 308.74 244.605 304.019C243.37 299.297 242.173 293.322 242.857 291.669C243.541 290.016 253.032 270.294 247.009 249.365C240.986 228.437 229.662 217.769 227.781 215.279C225.9 212.79 223.107 212.562 222.47 208.05C221.834 203.537 220.675 197.6 221.33 191.349C221.986 185.098 217.283 175.665 219.221 172.017C221.159 168.369 234.098 157.947 237.499 153.786C240.9 149.625 250.039 131.775 251.588 125.419C253.136 119.064 251.132 115.672 246.581 118.151C242.031 120.631 228.531 125.295 224.617 127.651C220.703 130.007 217.863 131.974 217.863 131.974C217.863 131.974 217.796 150.974 211.118 160.227C204.439 169.48 182.922 173.413 173.963 164.245C168.251 158.472 162.253 152.99 155.989 147.82Z" fill="#E1DEDE" stroke="black" stroke-linecap="round" stroke-linejoin="round"/>
<path id="Vector_77" d="M220.447 261.098C220.447 261.098 221.302 296.552 226.014 302.281C230.726 308.009 241.414 333.46 249.698 344.347C257.982 355.234 258.4 364.924 258.4 364.924" stroke="black" stroke-linecap="round" stroke-linejoin="round"/>
<path id="Vector_78" d="M225.776 139.184C225.776 139.184 234.326 127.86 238.753 123.557" stroke="black" stroke-linecap="round" stroke-linejoin="round"/>
<path id="Vector_79" d="M152.626 155.496C152.626 155.496 143.744 151.231 137.692 150.746" stroke="black" stroke-linecap="round" stroke-linejoin="round"/>
<path id="Vector_80" d="M182.266 181.83C182.266 181.83 180.537 189.136 179.198 194.845C177.858 200.555 182.437 206.958 186.95 208.468C191.462 209.979 199.195 203.974 201.684 202.093C204.173 200.212 205.855 199.054 209.341 199.785C212.828 200.517 215.431 203.832 222.641 200.365C229.852 196.897 229.624 188.964 227.828 184.917C226.033 180.87 218.262 177.982 216.428 176.092C215.227 174.851 213.938 173.699 212.571 172.643L210.462 175.094C210.462 175.094 211.83 176.121 212.514 180.937C213.198 185.754 207.337 196.393 204.715 197.372C202.093 198.35 194.502 190.228 190.902 186.437C187.301 182.647 186.437 180.937 186.437 180.937C186.437 180.937 182.656 180.243 182.266 181.83Z" fill="#930000" stroke="black" stroke-linecap="round" stroke-linejoin="round"/>
<path id="Vector_81" d="M191.425 227.164C191.425 227.164 208.525 243.77 213.902 243C219.602 242.193 228.941 216.951 228.941 216.951L230.65 218.243C230.65 218.243 223.374 231.847 222.452 240.568C221.531 249.289 222.452 260.195 220.448 261.098C218.443 262 209.779 248.14 206.387 244.064C201.59 238.298 191.188 229.653 191.188 229.653L191.425 227.164Z" fill="#930000" stroke="black" stroke-linecap="round" stroke-linejoin="round"/>
<g id="Vector_82" style="mix-blend-mode:multiply" opacity="0.6">
<path d="M223.459 294.5C223.06 288.648 220.172 265.278 220.172 265.278C220.172 265.278 216.21 287.936 217.198 294.956C218.186 301.977 225.748 313.576 231.268 319.96C236.787 326.344 249.698 344.375 249.698 344.375L229.406 306.736C229.406 306.736 223.867 300.314 223.459 294.5Z" fill="black"/>
</g>
<g id="Vector_83" style="mix-blend-mode:multiply" opacity="0.6">
<path d="M218.693 178.078L218.737 178.303L218.935 178.416C219.092 178.507 219.253 178.598 219.416 178.691C220.676 179.41 222.078 180.21 223.367 181.103C224.763 182.07 225.981 183.114 226.731 184.234C224.135 198.319 214.935 209.718 201.923 212.99C198.677 213.799 195.32 214.071 191.986 213.796C191.606 212.461 191.058 211.179 190.355 209.982L190.355 209.982L190.349 209.972C190.079 209.534 189.788 209.029 189.475 208.477L189.313 208.194L188.989 208.227C188.345 208.293 187.694 208.229 187.074 208.039C184.958 207.329 182.769 205.442 181.273 203.013C179.778 200.585 179.02 197.693 179.656 195.008L179.656 195.006L180.416 191.748L180.458 191.57L180.375 191.407C180.129 190.924 179.851 190.458 179.543 190.011L179.526 189.986L179.506 189.964C179.41 189.854 179.259 189.755 179.132 189.677C178.986 189.587 178.798 189.482 178.576 189.365C178.133 189.131 177.531 188.835 176.807 188.491C175.357 187.803 173.397 186.913 171.191 185.921C170.253 185.499 169.27 185.058 168.262 184.607C164.608 182.969 160.628 181.184 157.27 179.61C155.237 170.332 156.205 160.651 160.027 151.964C163.478 154.967 168.524 159.529 173.578 164.69C178.217 169.438 186.038 170.731 193.445 169.724C200.853 168.717 208.058 165.382 211.495 160.614C214.307 156.738 215.939 151.199 216.918 146.071C221.212 151.336 224.306 157.479 225.979 164.07C224.343 165.583 222.795 167.054 221.539 168.352C220.24 169.694 219.211 170.895 218.741 171.783L218.741 171.783L218.737 171.79C218.341 172.571 218.22 173.539 218.245 174.588C218.271 175.643 218.449 176.829 218.693 178.078Z" fill="#4D6A79"/>
<path d="M218.693 178.078L218.737 178.303L218.935 178.416C219.092 178.507 219.253 178.598 219.416 178.691C220.676 179.41 222.078 180.21 223.367 181.103C224.763 182.07 225.981 183.114 226.731 184.234C224.135 198.319 214.935 209.718 201.923 212.99C198.677 213.799 195.32 214.071 191.986 213.796C191.606 212.461 191.058 211.179 190.355 209.982L190.355 209.982L190.349 209.972C190.079 209.534 189.788 209.029 189.475 208.477L189.313 208.194L188.989 208.227C188.345 208.293 187.694 208.229 187.074 208.039C184.958 207.329 182.769 205.442 181.273 203.013C179.778 200.585 179.02 197.693 179.656 195.008L179.656 195.006L180.416 191.748L180.458 191.57L180.375 191.407C180.129 190.924 179.851 190.458 179.543 190.011L179.526 189.986L179.506 189.964C179.41 189.854 179.259 189.755 179.132 189.677C178.986 189.587 178.798 189.482 178.576 189.365C178.133 189.131 177.531 188.835 176.807 188.491C175.357 187.803 173.397 186.913 171.191 185.921C170.253 185.499 169.27 185.058 168.262 184.607C164.608 182.969 160.628 181.184 157.27 179.61C155.237 170.332 156.205 160.651 160.027 151.964C163.478 154.967 168.524 159.529 173.578 164.69C178.217 169.438 186.038 170.731 193.445 169.724C200.853 168.717 208.058 165.382 211.495 160.614C214.307 156.738 215.939 151.199 216.918 146.071C221.212 151.336 224.306 157.479 225.979 164.07C224.343 165.583 222.795 167.054 221.539 168.352C220.24 169.694 219.211 170.895 218.741 171.783L218.741 171.783L218.737 171.79C218.341 172.571 218.22 173.539 218.245 174.588C218.271 175.643 218.449 176.829 218.693 178.078Z" stroke="black"/>
</g>
<path id="Vector_84" d="M170.667 117.639C163.799 121.439 156.313 126.378 153.32 133.883C149.074 144.552 152.076 158.992 160.721 169.271C169.366 179.55 185.259 190.266 200.906 185.658C216.552 181.051 228.456 156.826 226.233 140.847C224.01 124.868 212.847 113.972 197.134 111.397C188.309 109.953 179.341 112.974 171.646 117.097L170.667 117.639Z" fill="#4D6A79" stroke="black" stroke-linecap="round" stroke-linejoin="round"/>
<g id="Vector_85" style="mix-blend-mode:multiply" opacity="0.1">
<path d="M206.806 150.963C208.581 163.53 200.44 175.017 188.694 176.676C176.948 178.335 165.943 169.553 164.168 156.986C162.393 144.419 170.535 132.932 182.28 131.273C194.026 129.614 205.031 138.396 206.806 150.963Z" fill="black"/>
<path d="M206.806 150.963C208.581 163.53 200.44 175.017 188.694 176.676C176.948 178.335 165.943 169.553 164.168 156.986C162.393 144.419 170.535 132.932 182.28 131.273C194.026 129.614 205.031 138.396 206.806 150.963Z" stroke="black"/>
</g>
<path id="Vector_86" d="M183.35 124.916C183.35 124.916 173.033 127.291 171.323 137.266C169.613 147.241 172.871 152.095 175.769 157.016C178.666 161.937 186.95 165.3 195.31 163.4C203.67 161.5 207.195 151.05 206.71 144.894C206.226 138.738 203.214 131.803 199.433 128.488C197.311 126.517 194.703 125.148 191.876 124.52C189.049 123.892 186.106 124.029 183.35 124.916Z" fill="#4D6A79" stroke="black" stroke-linecap="round" stroke-linejoin="round"/>
<path id="Vector_87" d="M183.35 124.916C183.35 124.916 173.033 127.291 171.323 137.266C170.716 140.401 170.694 143.622 171.256 146.766C171.902 147.991 172.605 149.141 173.28 150.3C176.13 155.211 184.509 158.641 192.869 156.722C201.229 154.803 204.753 144.372 204.269 138.216C204.146 136.826 203.917 135.447 203.585 134.093C202.57 131.995 201.176 130.104 199.471 128.516C197.348 126.534 194.735 125.156 191.9 124.523C189.066 123.89 186.114 124.025 183.35 124.916Z" fill="#4D6A79" stroke="black" stroke-linecap="round" stroke-linejoin="round"/>
<path id="Vector_88" d="M205.199 131.955C205.199 131.955 208.999 136.268 208.999 144.4" stroke="black" stroke-width="0.75" stroke-linecap="round" stroke-linejoin="round"/>
<path id="Vector_89" d="M208.8 147.953C208.643 151.028 207.676 154.007 205.997 156.588" stroke="black" stroke-width="0.75" stroke-linecap="round" stroke-linejoin="round"/>
<path id="Vector_90" d="M176.548 161.842C177.237 162.552 177.998 163.189 178.818 163.742" stroke="black" stroke-width="0.75" stroke-linecap="round" stroke-linejoin="round"/>
<path id="Vector_91" d="M169.926 149.226C170.897 153.122 172.606 156.795 174.961 160.047" stroke="black" stroke-width="0.75" stroke-linecap="round" stroke-linejoin="round"/>
</g>
</g>
</svg>
