<svg width="475" height="475" viewBox="0 0 475 475" fill="none" xmlns="http://www.w3.org/2000/svg">
<g id="Travelers-bro 1">
<path id="Vector" opacity="0.7" d="M298.074 423C374.167 423 449.441 358.789 444.796 281.539C441.393 225.141 426.994 166.165 396.181 121.227C324.473 16.6356 248.871 30.3504 228.168 113.982C207.466 197.613 98.6411 136.118 43.8867 225.739C38.3266 234.993 34.1067 245.013 31.3571 255.492C8.40867 340.427 79.4515 421.99 166.041 421.99L298.074 423Z" fill="#AEC48A"/>
<g id="freepik--Beach--inject-174">
<path id="Vector_2" d="M41.5156 354.825H444.582" stroke="#37373A" stroke-linecap="round" stroke-linejoin="round"/>
<path id="Vector_3" d="M358.454 367.194C354.73 367.298 350.997 367.479 347.292 367.792" stroke="#37373A" stroke-linecap="round" stroke-linejoin="round"/>
<path id="Vector_4" d="M417.591 366.149C413.314 366.601 408.991 366.308 404.814 365.284C400.824 364.42 395.361 366.386 391.134 366.89C381.755 368.038 372.277 368.117 362.881 367.127" stroke="#37373A" stroke-linecap="round" stroke-linejoin="round"/>
<path id="Vector_5" d="M431.633 366.586C428.422 366.586 425.439 365.446 422.066 365.702" stroke="#37373A" stroke-linecap="round" stroke-linejoin="round"/>
<path id="Vector_6" d="M383.896 376.628C386.602 376.815 389.295 377.161 391.961 377.663" stroke="#37373A" stroke-linecap="round" stroke-linejoin="round"/>
<path id="Vector_7" d="M309.035 376.039C320.901 375.089 332.415 375.782 344.185 376.818C355.756 377.825 367.337 376.219 378.917 376.419" stroke="#37373A" stroke-linecap="round" stroke-linejoin="round"/>
<path id="Vector_8" d="M277.059 373.892C286.188 373.654 294.7 374.994 303.725 375.792" stroke="#37373A" stroke-linecap="round" stroke-linejoin="round"/>
<path id="Vector_9" d="M175.636 369.759H172.358" stroke="#37373A" stroke-linecap="round" stroke-linejoin="round"/>
<path id="Vector_10" d="M227.668 369.654C211.841 369.569 196.023 369.55 180.168 369.712" stroke="#37373A" stroke-linecap="round" stroke-linejoin="round"/>
<path id="Vector_11" d="M263.502 367.792C252.957 367.165 242.526 368.676 232.038 369.464" stroke="#37373A" stroke-linecap="round" stroke-linejoin="round"/>
<path id="Vector_12" d="M139.65 370.301H153.71" stroke="#37373A" stroke-linecap="round" stroke-linejoin="round"/>
<path id="Vector_13" d="M41.2773 368.837C47.4998 366.7 54.1498 366.7 60.7998 367.65C65.5498 368.6 70.2998 371.45 75.9998 370.5C82.6498 368.6 89.2998 367.65 95.9498 370.5C109.25 368.6 122.55 371.45 135.46 370.31" stroke="#37373A" stroke-linecap="round" stroke-linejoin="round"/>
<path id="Vector_14" d="M208.592 379.316C212.249 379.421 215.916 379.43 219.583 379.316" stroke="#37373A" stroke-linecap="round" stroke-linejoin="round"/>
<path id="Vector_15" d="M124.223 377.274C139.651 376.2 153.901 378.1 169.101 377.15C180.501 377.15 191.901 378.1 202.845 379.05" stroke="#37373A" stroke-linecap="round" stroke-linejoin="round"/>
<path id="Vector_16" d="M249.29 359.1H246.013" stroke="#37373A" stroke-linecap="round" stroke-linejoin="round"/>
<path id="Vector_17" d="M301.321 359.015C285.494 358.929 269.677 358.91 253.821 359.072" stroke="#37373A" stroke-linecap="round" stroke-linejoin="round"/>
<path id="Vector_18" d="M337.155 357.2C326.61 356.573 316.179 358.083 305.691 358.872" stroke="#37373A" stroke-linecap="round" stroke-linejoin="round"/>
<path id="Vector_19" d="M213.285 359.67H227.345" stroke="#37373A" stroke-linecap="round" stroke-linejoin="round"/>
<path id="Vector_20" d="M282.235 368.676C285.902 368.78 289.569 368.79 293.236 368.676" stroke="#37373A" stroke-linecap="round" stroke-linejoin="round"/>
<path id="Vector_21" d="M232.104 391.181L237.187 391.619" stroke="#37373A" stroke-linecap="round" stroke-linejoin="round"/>
<path id="Vector_22" d="M203.12 390.716C211.281 390.925 219.451 391.02 227.611 390.811" stroke="#37373A" stroke-linecap="round" stroke-linejoin="round"/>
<path id="Vector_23" d="M171.352 389.842C180.177 389.975 189.003 390.308 197.819 390.564" stroke="#37373A" stroke-linecap="round" stroke-linejoin="round"/>
<path id="Vector_24" d="M158.556 389.833C161.089 389.795 163.645 389.795 166.222 389.833" stroke="#37373A" stroke-linecap="round" stroke-linejoin="round"/>
<path id="Vector_25" d="M109.25 376.96L120.431 377.197" stroke="#37373A" stroke-linecap="round" stroke-linejoin="round"/>
<path id="Vector_26" d="M162.641 363.061C166.764 363.308 170.459 362.558 173.974 363.061C177.489 363.565 182.04 362.415 183.275 363.109" stroke="#37373A" stroke-linecap="round" stroke-linejoin="round"/>
<path id="Vector_27" d="M277.59 382.014C290.7 382.85 304.95 382.85 318.25 383.173" stroke="#37373A" stroke-linecap="round" stroke-linejoin="round"/>
<path id="Vector_28" d="M261.706 383.173C265.582 382.916 269.449 382.584 273.315 382.299" stroke="#37373A" stroke-linecap="round" stroke-linejoin="round"/>
<path id="Vector_29" d="M285.703 398.278C272.593 397.451 258.343 397.451 245.053 397.128" stroke="#37373A" stroke-linecap="round" stroke-linejoin="round"/>
<path id="Vector_30" d="M301.587 397.1C297.711 397.357 293.845 397.689 289.969 397.974" stroke="#37373A" stroke-linecap="round" stroke-linejoin="round"/>
<path id="Vector_31" d="M455.269 373.91C455.269 373.91 440.61 374.661 437.219 379.031C433.827 383.401 423.311 383.781 404.919 387.049C386.527 390.317 392.141 394.212 373.911 397.964C355.68 401.717 318.858 401.907 312.455 404.13C306.052 406.353 270.37 407.36 240.075 407.36C209.779 407.36 139.964 407.36 135.765 401.907C131.566 396.454 123.054 399.465 111.464 396.463C99.8737 393.461 66.6807 394.212 62.5387 391.01C58.3967 387.809 59.1567 381.51 46.3887 381.928C39.2542 382.185 39.6247 374.328 34.7417 373.91C30.8621 373.705 26.9743 373.705 23.0947 373.91" stroke="#37373A" stroke-linecap="round" stroke-linejoin="round"/>
<path id="Vector_32" d="M200.089 353.97C200.089 353.97 245.689 349.002 251.246 346.427C256.804 343.853 278.711 324.178 282.235 323.865C285.76 323.551 299.953 325.765 301.321 326.924C302.689 328.083 320.758 310.498 324.311 307.069C327.864 303.639 336.889 297.027 339.891 298.832C342.893 300.637 344.555 304.105 348.992 307.069C353.428 310.033 371.706 312.892 371.706 312.892C371.706 312.892 373.711 318.288 376.912 319.799C380.114 321.309 394.829 324.435 394.421 326.249C394.012 328.064 394.364 335.958 402.268 338.21C410.172 340.461 419.681 345.62 422.066 346.427C424.45 347.235 433.466 354.151 440.239 354.825" stroke="#37373A" stroke-linecap="round" stroke-linejoin="round"/>
<path id="Vector_33" d="M263.502 336.167C263.502 336.167 250.098 329.156 245.006 326.924C239.914 324.691 231.307 337.126 227.345 336.167C223.384 335.207 213.238 333.099 209.856 336.214C206.474 339.33 194.076 347.871 192.566 346.427C191.055 344.983 150.177 343.254 146.196 342.798C142.216 342.342 132.592 351.063 129.096 348.792C125.6 346.522 101.176 323.456 94.896 325.185C88.6165 326.914 69.075 339.71 66.776 341.221C64.477 342.731 60.848 342.38 58.454 342.798C56.06 343.216 47.5005 349.961 45.249 350.474" stroke="#37373A" stroke-linecap="round" stroke-linejoin="round"/>
<path id="Vector_34" d="M269.506 174.42C269.506 174.42 266.551 164.16 246.63 164.103C226.708 164.046 215.033 182.087 215.033 182.087C215.033 182.087 206.682 174.23 196.593 179.474C186.504 184.718 186.523 187.692 186.523 187.692H103.598" stroke="#37373A" stroke-linecap="round" stroke-linejoin="round"/>
<path id="Vector_35" d="M333.014 269.192C333.014 269.192 335.968 258.923 355.89 258.875C375.811 258.828 387.487 276.858 387.487 276.858C387.487 276.858 395.837 269.002 405.926 274.246C416.015 279.49 415.996 282.463 415.996 282.463H441.931" stroke="#37373A" stroke-linecap="round" stroke-linejoin="round"/>
<path id="Vector_36" d="M259.464 243.979H202.844C202.844 243.979 206.853 236.379 197.819 227.345C188.784 218.31 179.626 224.333 179.626 224.333C179.626 224.333 170.772 196.897 144.932 200.118C119.092 203.338 116.375 225.891 116.375 225.891C116.375 225.891 110.856 220.353 99.6078 223.991C88.3598 227.63 86.6593 241.557 89.4428 247.418C89.4428 247.418 76.6368 249.67 75.7818 259.559C75.7818 259.559 74.9933 250.81 62.9378 250.544C50.8823 250.278 47.8803 263.844 47.8803 263.844H34.3428" stroke="#37373A" stroke-linecap="round" stroke-linejoin="round"/>
</g>
<g id="freepik--Map--inject-174">
<path id="Vector_37" d="M338.751 80.693L336.233 85.329C335.962 85.8303 335.56 86.2488 335.07 86.5399C334.58 86.8309 334.02 86.9837 333.45 86.982H291.65C291.081 86.982 290.523 86.8284 290.035 86.5374C289.547 86.2465 289.146 85.8289 288.876 85.329L286.358 80.693C286.085 80.1962 285.683 79.7817 285.196 79.4926C284.708 79.2036 284.151 79.0506 283.584 79.0495H244.881C244.044 79.0495 243.241 79.3815 242.648 79.9727C242.055 80.5639 241.72 81.3661 241.718 82.2035V332.111C241.718 332.95 242.051 333.754 242.644 334.347C243.238 334.941 244.042 335.274 244.881 335.274H380.218C381.057 335.274 381.862 334.941 382.455 334.347C383.048 333.754 383.382 332.95 383.382 332.111V82.2035C383.379 81.3661 383.045 80.5639 382.452 79.9727C381.859 79.3815 381.056 79.0495 380.218 79.0495H341.525C340.958 79.0506 340.401 79.2036 339.913 79.4926C339.426 79.7817 339.024 80.1962 338.751 80.693Z" fill="#DFF4FB" stroke="#1B3308" stroke-linecap="round" stroke-linejoin="round"/>
<path id="Vector_38" d="M379.192 103.74H245.907V251.778H379.192V103.74Z" fill="#8EB97E"/>
<g id="Clip path group">
<mask id="mask0_49_417" style="mask-type:luminance" maskUnits="userSpaceOnUse" x="245" y="103" width="135" height="149">
<g id="freepik--clip-path--inject-174">
<path id="Vector_39" d="M379.192 103.74H245.907V251.778H379.192V103.74Z" fill="white"/>
</g>
</mask>
<g mask="url(#mask0_49_417)">
<g id="Group">
<path id="Vector_40" opacity="0.7" d="M379.192 103.74H245.907V251.778H379.192V103.74Z" fill="#407383"/>
</g>
</g>
</g>
<path id="Vector_41" d="M379.192 103.74H245.907V251.778H379.192V103.74Z" stroke="#1B3308" stroke-linecap="round" stroke-linejoin="round"/>
<path id="Vector_42" d="M379.192 117.363C377.501 119.13 376.123 121.059 374.66 120.821C371.62 120.327 369.445 121.771 367.706 120.821C365.968 119.871 365.531 124.621 365.531 124.621L362.481 127.233L359.878 128.183C359.878 128.183 358.567 130.549 359.878 131.765C361.189 132.981 362.633 135.138 359.299 135.138H353.789C353.789 135.138 352.05 131.851 349.875 131.765C347.699 131.68 346.835 127.243 346.835 127.243V123.5L339.007 127.243C339.007 127.243 334.257 128.345 334.257 130.017V135.85L332.091 140.058L339.472 141.256L342.085 137.047C342.085 137.047 345.125 135.983 345.562 137.997C345.88 140.816 346.026 143.653 345.999 146.49C344.908 148.16 344.03 149.96 343.386 151.848C346.436 154.746 345.562 155.401 347.31 155.943C349.058 156.484 349.913 158.973 349.913 160.341V161.709C349.913 161.709 341.648 162.355 347.31 166.165C349.02 167.324 349.694 167.799 349.884 167.96C348.763 167.343 349.884 168.027 349.941 168.027C349.945 168.008 349.945 167.988 349.941 167.97L350.388 168.226C351.316 168.682 352.19 169.243 352.991 169.898C352.991 169.822 353.399 169.756 355.166 170.022C357.779 170.402 359.517 164.322 362.557 168.226C365.597 172.131 367.307 174.534 368.647 175.731L369.958 176.928L378.65 179.512L379.268 179.559L379.192 117.363Z" fill="#8EB97E" stroke="#1B3308" stroke-linecap="round" stroke-linejoin="round"/>
<g id="Vector_43">
<path d="M361 204.364C358.824 200.013 361 204.364 359.698 205.115C358.397 205.865 356.221 206.54 353.609 204.469C353.609 204.469 354.91 202.626 353.609 199.31C352.307 195.995 350.569 199.139 348.384 199.31C346.876 199.412 345.37 199.083 344.042 198.36C343.168 197.952 342.731 196.593 340.128 195.795C337.525 194.997 338.39 195.719 334.428 201.191H332.253C332.253 201.191 331.388 203.984 330.077 204.526C328.766 205.067 325.726 203.984 324.862 201.942C323.997 199.899 329.612 199.196 333.991 197.875C338.371 196.555 331.816 192.176 331.816 192.176L331.388 188.375L329.65 186.533C327.911 184.794 324.434 185.668 323.133 181.716C321.831 177.764 324.434 180.006 322.259 177.622C321.095 176.281 319.718 175.142 318.183 174.249C318.183 174.249 307.477 176.966 304 174.249C300.523 171.532 300.086 175.133 300.086 175.133L296.172 180.358V186.533H287.47L284.42 182.4C284.42 182.4 280.516 174.8 283.119 174.249C285.722 173.698 286.596 174.249 286.596 174.249L289.636 170.877L289.712 170.962C289.778 171.057 293.512 171.314 293.987 170.155C294.462 168.996 292.685 164.797 292.685 164.797L287.47 160.873L284.42 159.6C283.089 159.077 281.785 158.484 280.516 157.824L278.777 156.294C277.029 154.755 275.728 158.26 274.417 158.393C273.106 158.527 268.764 154.347 267.463 151.743C266.161 149.141 272.213 151.335 273.98 150.119C275.747 148.903 277.029 146.984 277.029 140.951C277.029 134.919 274.854 140.458 273.115 141.313C271.377 142.168 268.764 142.196 265.287 140.951C261.81 139.707 264.423 139.156 262.247 139.213C260.072 139.27 250.505 140.951 250.505 140.951C250.505 140.951 248.187 143.868 245.907 146.699V251.75H257.45C257.45 251.608 257.45 251.883 257.45 251.75C257.45 249.204 261.801 249.119 263.15 247.162C264.499 245.205 267.054 241.889 267.054 241.889V239.59L267.928 236.265C268.793 232.95 271.405 237.405 274.445 237.557C277.485 237.709 280.145 237.405 280.544 235.23C280.943 233.054 280.544 235.23 280.544 230.48C280.544 225.73 280.544 228.665 283.584 228.58L289.237 230.48C291.656 231.303 294.125 231.975 296.628 232.494C300.542 233.282 298.366 236.218 298.366 236.218L304.019 238.042H312.274L315.324 241.414L318.174 241.87H323.56L325.726 238.07C326.788 237.292 327.96 236.677 329.203 236.246C330.514 235.971 334.428 236.949 334.428 236.949L337.212 236.864C339.995 236.778 339.644 232.731 339.644 232.731L341.382 230.508L342.256 228.608L346.161 223.488L348.849 220.79C351.538 218.092 350.084 216.99 350.084 216.99L348.849 213.997C347.624 211.014 351.386 213.665 351.386 213.665C353.904 214.43 356.372 215.35 358.777 216.42C363.527 218.462 362.691 214.814 363.128 213.665C363.565 212.515 363.128 208.706 361 204.364Z" fill="#8EB97E"/>
<path d="M257.45 251.75H245.907V146.699C248.187 143.868 250.505 140.951 250.505 140.951C250.505 140.951 260.072 139.27 262.247 139.213C264.423 139.156 261.81 139.707 265.287 140.951C268.764 142.196 271.377 142.168 273.115 141.313C274.854 140.458 277.029 134.919 277.029 140.951C277.029 146.984 275.747 148.903 273.98 150.119C272.213 151.335 266.161 149.14 267.463 151.743C268.764 154.346 273.106 158.527 274.417 158.394C275.728 158.261 277.029 154.755 278.777 156.294L280.516 157.824C281.785 158.484 283.089 159.077 284.42 159.6L287.47 160.873L292.685 164.797C292.685 164.797 294.462 168.996 293.987 170.155C293.512 171.314 289.778 171.057 289.712 170.962L289.636 170.877L286.596 174.249C286.596 174.249 285.722 173.698 283.119 174.249C280.516 174.8 284.42 182.4 284.42 182.4L287.47 186.533H296.172V180.358L300.086 175.133C300.086 175.133 300.523 171.532 304 174.249C307.477 176.966 318.183 174.249 318.183 174.249C319.718 175.142 321.095 176.281 322.259 177.622C324.434 180.006 321.831 177.764 323.133 181.716C324.434 185.668 327.911 184.794 329.65 186.533L331.388 188.376L331.816 192.176C331.816 192.176 338.371 196.555 333.991 197.876C329.612 199.196 323.997 199.899 324.862 201.942C325.726 203.984 328.766 205.067 330.077 204.526C331.388 203.984 332.253 201.191 332.253 201.191H334.428C338.39 195.719 337.525 194.997 340.128 195.795C342.731 196.593 343.168 197.952 344.042 198.36C345.37 199.083 346.876 199.412 348.384 199.31C350.569 199.139 352.307 195.995 353.609 199.31C354.91 202.626 353.609 204.469 353.609 204.469C356.221 206.54 358.397 205.865 359.698 205.115C361 204.364 358.824 200.013 361 204.364C363.128 208.706 363.565 212.515 363.128 213.665C362.691 214.814 363.527 218.462 358.777 216.42C356.372 215.35 353.904 214.43 351.386 213.665C351.386 213.665 347.624 211.014 348.849 213.997L350.084 216.99C350.084 216.99 351.538 218.092 348.849 220.79L346.161 223.488L342.256 228.608L341.382 230.508L339.644 232.731C339.644 232.731 339.995 236.778 337.212 236.864L334.428 236.949C334.428 236.949 330.514 235.971 329.203 236.246C327.96 236.677 326.788 237.292 325.726 238.07L323.56 241.87H318.174L315.324 241.414L312.274 238.042H304.019L298.366 236.218C298.366 236.218 300.542 233.282 296.628 232.494C294.125 231.975 291.656 231.303 289.237 230.48L283.584 228.58C280.544 228.665 280.544 225.73 280.544 230.48C280.544 235.23 280.943 233.054 280.544 235.23C280.145 237.405 277.485 237.709 274.445 237.557C271.405 237.405 268.793 232.95 267.928 236.265L267.054 239.59V241.889C267.054 241.889 264.499 245.205 263.15 247.162C261.801 249.119 257.45 249.204 257.45 251.75ZM257.45 251.75C257.45 251.608 257.45 251.883 257.45 251.75Z" stroke="#1B3308" stroke-linecap="round" stroke-linejoin="round"/>
</g>
<path id="Vector_44" d="M289.75 146.965C285.313 140.61 296.637 141.066 297.939 141.835C299.24 142.605 303.591 141.835 303.591 141.835V139.194C303.591 139.194 306.641 139.251 307.942 139.194C309.244 139.137 311.419 136.677 311.856 139.432C312.081 141.477 312.081 143.542 311.856 145.588C311.856 146.965 310.906 148.894 312.046 150.1C313.186 151.307 307.942 152.732 307.942 154.194C307.942 155.658 309.681 162.887 306.204 158.403C302.727 153.919 303.572 152.427 300.979 151.221L298.3 150.005C298.3 150.005 294.557 153.9 289.75 146.965Z" fill="#8EB97E" stroke="#1B3308" stroke-linecap="round" stroke-linejoin="round"/>
<path id="Vector_45" d="M268.337 115.216L267.463 113.477H264.565C264.565 113.477 260.072 108.262 258.77 107.321C257.687 106.552 261.383 106.21 265.648 103.73H245.907V130.15C246.179 130.544 246.573 130.838 247.028 130.986C248.767 131.48 253.118 130.929 255.721 130.245C258.324 129.561 255.721 128.345 255.721 124.84C255.721 121.334 258.571 124.963 258.571 124.963L261.373 123.538C262.594 122.494 263.496 121.128 263.976 119.595C264.85 116.973 265.876 119.595 265.876 119.595L269.676 120.783C269.676 120.783 273.106 120.925 273.106 119.595C273.106 118.265 268.337 115.216 268.337 115.216Z" fill="#8EB97E" stroke="#1B3308" stroke-linecap="round" stroke-linejoin="round"/>
<path id="Vector_46" d="M379.192 230.85C378.831 232.009 378.736 233.881 377.472 234.65C375.297 235.952 377.472 234.65 375.297 234.565C373.121 234.479 371.82 236.826 372.912 240.198L369.597 240.702V238.545L363.992 237.253L363.279 237.405C362.557 237.567 360.952 241.604 360.515 244.283C357.621 244.498 354.716 244.498 351.822 244.283C347.471 243.922 351.822 246.515 351.822 246.515L358.776 247.694L361.389 246.515C363.992 245.337 366.139 250.031 366.139 250.031C366.139 250.031 368.314 245.518 369.616 244.122C370.917 242.725 373.967 244.654 377.444 244.283L379.163 243.333L379.192 230.85Z" fill="#8EB97E" stroke="#1B3308" stroke-linecap="round" stroke-linejoin="round"/>
<path id="Vector_47" d="M289.749 178.287C289.116 177.652 288.364 177.149 287.535 176.806C286.707 176.463 285.82 176.286 284.923 176.286C284.027 176.286 283.139 176.463 282.311 176.806C281.483 177.149 280.731 177.652 280.097 178.287C279.463 178.92 278.96 179.672 278.617 180.5C278.273 181.328 278.097 182.216 278.097 183.113C278.097 184.009 278.273 184.897 278.617 185.725C278.96 186.553 279.463 187.305 280.097 187.939L284.923 192.755L289.749 187.939C291.028 186.658 291.746 184.922 291.746 183.113C291.746 181.303 291.028 179.567 289.749 178.287Z" fill="#930000" stroke="#1B3308" stroke-linecap="round" stroke-linejoin="round"/>
<path id="Vector_48" d="M287.907 186.086C287.318 186.674 286.568 187.074 285.752 187.236C284.935 187.398 284.09 187.314 283.321 186.995C282.552 186.676 281.896 186.137 281.433 185.445C280.971 184.753 280.725 183.94 280.725 183.108C280.725 182.276 280.971 181.462 281.433 180.77C281.896 180.078 282.552 179.539 283.321 179.22C284.09 178.902 284.935 178.818 285.752 178.98C286.568 179.141 287.318 179.542 287.907 180.129C288.299 180.52 288.611 180.984 288.823 181.495C289.036 182.006 289.146 182.554 289.146 183.108C289.146 183.661 289.036 184.209 288.823 184.721C288.611 185.232 288.299 185.696 287.907 186.086Z" fill="#8EB97E"/>
<g id="Clip path group_2">
<mask id="mask1_49_417" style="mask-type:luminance" maskUnits="userSpaceOnUse" x="280" y="178" width="10" height="10">
<g id="freepik--clip-path-2--inject-174">
<path id="Vector_49" d="M287.907 186.086C287.318 186.674 286.568 187.074 285.752 187.236C284.935 187.398 284.09 187.314 283.321 186.995C282.552 186.676 281.896 186.137 281.433 185.445C280.971 184.753 280.725 183.94 280.725 183.108C280.725 182.276 280.971 181.462 281.433 180.77C281.896 180.078 282.552 179.539 283.321 179.22C284.09 178.902 284.935 178.818 285.752 178.98C286.568 179.141 287.318 179.542 287.907 180.129C288.299 180.52 288.611 180.984 288.823 181.495C289.036 182.006 289.146 182.554 289.146 183.108C289.146 183.661 289.036 184.209 288.823 184.721C288.611 185.232 288.299 185.696 287.907 186.086Z" fill="white"/>
</g>
</mask>
<g mask="url(#mask1_49_417)">
<g id="Group_2">
<path id="Vector_50" opacity="0.6" d="M287.907 186.086C287.318 186.674 286.568 187.074 285.752 187.236C284.935 187.398 284.09 187.314 283.321 186.995C282.552 186.676 281.896 186.137 281.433 185.445C280.971 184.753 280.725 183.94 280.725 183.108C280.725 182.276 280.971 181.462 281.433 180.77C281.896 180.078 282.552 179.539 283.321 179.22C284.09 178.902 284.935 178.818 285.752 178.98C286.568 179.141 287.318 179.542 287.907 180.129C288.299 180.52 288.611 180.984 288.823 181.495C289.036 182.006 289.146 182.554 289.146 183.108C289.146 183.661 289.036 184.209 288.823 184.721C288.611 185.232 288.299 185.696 287.907 186.086Z" fill="#D1F4FF"/>
</g>
</g>
</g>
<path id="Vector_51" d="M287.907 186.086C287.318 186.674 286.568 187.074 285.752 187.236C284.935 187.398 284.09 187.314 283.321 186.995C282.552 186.676 281.896 186.137 281.433 185.445C280.971 184.753 280.725 183.94 280.725 183.108C280.725 182.276 280.971 181.462 281.433 180.77C281.896 180.078 282.552 179.539 283.321 179.22C284.09 178.902 284.935 178.818 285.752 178.98C286.568 179.141 287.318 179.542 287.907 180.129C288.299 180.52 288.611 180.984 288.823 181.495C289.036 182.006 289.146 182.554 289.146 183.108C289.146 183.661 289.036 184.209 288.823 184.721C288.611 185.232 288.299 185.696 287.907 186.086Z" stroke="#1B3308" stroke-linecap="round" stroke-linejoin="round"/>
<path id="Vector_52" d="M283.023 183.112L284.505 184.518L286.681 181.535" stroke="#1B3308" stroke-linecap="round" stroke-linejoin="round"/>
<path id="Vector_53" d="M264.337 108.652C263.704 108.017 262.952 107.514 262.123 107.171C261.295 106.828 260.408 106.651 259.511 106.651C258.615 106.651 257.727 106.828 256.899 107.171C256.071 107.514 255.319 108.017 254.685 108.652C253.407 109.931 252.689 111.665 252.689 113.473C252.689 115.281 253.407 117.015 254.685 118.294L259.511 123.12L264.337 118.294C265.615 117.015 266.333 115.281 266.333 113.473C266.333 111.665 265.615 109.931 264.337 108.652Z" fill="#930000" stroke="#1B3308" stroke-linecap="round" stroke-linejoin="round"/>
<path id="Vector_54" d="M262.494 116.451C261.905 117.042 261.153 117.445 260.334 117.609C259.516 117.773 258.667 117.69 257.896 117.371C257.124 117.052 256.465 116.511 256.001 115.817C255.537 115.124 255.289 114.308 255.289 113.473C255.289 112.638 255.537 111.822 256.001 111.128C256.465 110.434 257.124 109.894 257.896 109.575C258.667 109.256 259.516 109.173 260.334 109.337C261.153 109.5 261.905 109.903 262.494 110.495C263.282 111.285 263.725 112.356 263.725 113.473C263.725 114.589 263.282 115.66 262.494 116.451Z" fill="#8EB97E"/>
<g id="Clip path group_3">
<mask id="mask2_49_417" style="mask-type:luminance" maskUnits="userSpaceOnUse" x="255" y="109" width="9" height="9">
<g id="freepik--clip-path-3--inject-174">
<path id="Vector_55" d="M262.494 116.451C261.905 117.042 261.153 117.445 260.334 117.609C259.516 117.773 258.667 117.69 257.896 117.371C257.124 117.052 256.465 116.511 256.001 115.817C255.537 115.124 255.289 114.308 255.289 113.473C255.289 112.638 255.537 111.822 256.001 111.128C256.465 110.434 257.124 109.894 257.896 109.575C258.667 109.256 259.516 109.173 260.334 109.337C261.153 109.5 261.905 109.903 262.494 110.495C263.282 111.285 263.725 112.356 263.725 113.473C263.725 114.589 263.282 115.66 262.494 116.451Z" fill="white"/>
</g>
</mask>
<g mask="url(#mask2_49_417)">
<g id="Group_3">
<path id="Vector_56" opacity="0.6" d="M262.494 116.451C261.905 117.042 261.153 117.445 260.334 117.609C259.516 117.773 258.667 117.69 257.896 117.371C257.124 117.052 256.465 116.511 256.001 115.817C255.537 115.124 255.289 114.308 255.289 113.473C255.289 112.638 255.537 111.822 256.001 111.128C256.465 110.434 257.124 109.894 257.896 109.575C258.667 109.256 259.516 109.173 260.334 109.337C261.153 109.5 261.905 109.903 262.494 110.495C263.282 111.285 263.725 112.356 263.725 113.473C263.725 114.589 263.282 115.66 262.494 116.451Z" fill="#D1F4FF"/>
</g>
</g>
</g>
<path id="Vector_57" d="M262.494 116.451C261.905 117.042 261.153 117.445 260.334 117.609C259.516 117.773 258.667 117.69 257.896 117.371C257.124 117.052 256.465 116.511 256.001 115.817C255.537 115.124 255.289 114.308 255.289 113.473C255.289 112.638 255.537 111.822 256.001 111.128C256.465 110.434 257.124 109.894 257.896 109.575C258.667 109.256 259.516 109.173 260.334 109.337C261.153 109.5 261.905 109.903 262.494 110.495C263.282 111.285 263.725 112.356 263.725 113.473C263.725 114.589 263.282 115.66 262.494 116.451Z" stroke="#1B3308" stroke-linecap="round" stroke-linejoin="round"/>
<path id="Vector_58" d="M257.602 113.468L259.084 114.884L261.259 111.901" stroke="#1B3308" stroke-linecap="round" stroke-linejoin="round"/>
<path id="Vector_59" d="M310.745 134.017C309.466 132.738 307.732 132.021 305.923 132.021C304.115 132.021 302.381 132.738 301.102 134.017C300.468 134.65 299.965 135.402 299.622 136.23C299.278 137.058 299.102 137.946 299.102 138.842C299.102 139.739 299.278 140.627 299.622 141.455C299.965 142.283 300.468 143.035 301.102 143.668L305.928 148.494L310.745 143.668C311.379 143.035 311.882 142.283 312.225 141.455C312.569 140.627 312.745 139.739 312.745 138.842C312.745 137.946 312.569 137.058 312.225 136.23C311.882 135.402 311.379 134.65 310.745 134.017Z" fill="#930000" stroke="#1B3308" stroke-linecap="round" stroke-linejoin="round"/>
<path id="Vector_60" d="M308.901 141.826C308.311 142.415 307.56 142.817 306.742 142.98C305.923 143.142 305.075 143.059 304.305 142.739C303.534 142.42 302.875 141.879 302.412 141.186C301.949 140.492 301.701 139.677 301.701 138.843C301.701 138.008 301.949 137.193 302.412 136.499C302.875 135.806 303.534 135.265 304.305 134.946C305.075 134.626 305.923 134.543 306.742 134.705C307.56 134.868 308.311 135.27 308.901 135.86C309.69 136.652 310.133 137.724 310.133 138.843C310.133 139.961 309.69 141.033 308.901 141.826Z" fill="#8EB97E"/>
<g id="Clip path group_4">
<mask id="mask3_49_417" style="mask-type:luminance" maskUnits="userSpaceOnUse" x="301" y="134" width="10" height="10">
<g id="freepik--clip-path-4--inject-174">
<path id="Vector_61" d="M308.901 141.826C308.311 142.415 307.56 142.817 306.742 142.98C305.923 143.142 305.075 143.059 304.305 142.739C303.534 142.42 302.875 141.879 302.412 141.186C301.949 140.492 301.701 139.677 301.701 138.843C301.701 138.008 301.949 137.193 302.412 136.499C302.875 135.806 303.534 135.265 304.305 134.946C305.075 134.626 305.923 134.543 306.742 134.705C307.56 134.868 308.311 135.27 308.901 135.86C309.69 136.652 310.133 137.724 310.133 138.843C310.133 139.961 309.69 141.033 308.901 141.826Z" fill="white"/>
</g>
</mask>
<g mask="url(#mask3_49_417)">
<g id="Group_4">
<path id="Vector_62" opacity="0.6" d="M308.901 141.826C308.311 142.415 307.56 142.817 306.742 142.98C305.923 143.142 305.075 143.059 304.305 142.739C303.534 142.42 302.875 141.879 302.412 141.186C301.949 140.492 301.701 139.677 301.701 138.843C301.701 138.008 301.949 137.193 302.412 136.499C302.875 135.806 303.534 135.265 304.305 134.946C305.075 134.626 305.923 134.543 306.742 134.705C307.56 134.868 308.311 135.27 308.901 135.86C309.69 136.652 310.133 137.724 310.133 138.843C310.133 139.961 309.69 141.033 308.901 141.826Z" fill="#D1F4FF"/>
</g>
</g>
</g>
<path id="Vector_63" d="M308.901 141.826C308.311 142.415 307.56 142.817 306.742 142.98C305.923 143.142 305.075 143.059 304.305 142.739C303.534 142.42 302.875 141.879 302.412 141.186C301.949 140.492 301.701 139.677 301.701 138.843C301.701 138.008 301.949 137.193 302.412 136.499C302.875 135.806 303.534 135.265 304.305 134.946C305.075 134.626 305.923 134.543 306.742 134.705C307.56 134.868 308.311 135.27 308.901 135.86C309.69 136.652 310.133 137.724 310.133 138.843C310.133 139.961 309.69 141.033 308.901 141.826Z" stroke="#1B3308" stroke-linecap="round" stroke-linejoin="round"/>
<path id="Vector_64" d="M304.01 138.842L305.492 140.258L307.677 137.266" stroke="#1B3308" stroke-linecap="round" stroke-linejoin="round"/>
<path id="Vector_65" d="M335.217 217.408C334.584 216.773 333.831 216.27 333.003 215.927C332.175 215.584 331.288 215.407 330.391 215.407C329.495 215.407 328.607 215.584 327.779 215.927C326.951 216.27 326.199 216.773 325.565 217.408C324.931 218.041 324.428 218.793 324.084 219.621C323.741 220.449 323.564 221.337 323.564 222.233C323.564 223.13 323.741 224.018 324.084 224.846C324.428 225.674 324.931 226.426 325.565 227.059L330.391 231.885L335.217 227.059C336.496 225.779 337.214 224.043 337.214 222.233C337.214 220.424 336.496 218.688 335.217 217.408Z" fill="#930000" stroke="#1B3308" stroke-linecap="round" stroke-linejoin="round"/>
<path id="Vector_66" d="M333.364 225.216C332.774 225.806 332.023 226.208 331.205 226.371C330.386 226.533 329.538 226.45 328.768 226.13C327.997 225.811 327.338 225.27 326.875 224.577C326.411 223.883 326.164 223.068 326.164 222.233C326.164 221.399 326.411 220.584 326.875 219.89C327.338 219.197 327.997 218.656 328.768 218.337C329.538 218.017 330.386 217.934 331.205 218.096C332.023 218.259 332.774 218.661 333.364 219.25C333.757 219.642 334.069 220.106 334.282 220.618C334.494 221.13 334.604 221.679 334.604 222.233C334.604 222.788 334.494 223.337 334.282 223.849C334.069 224.361 333.757 224.825 333.364 225.216Z" fill="#8EB97E"/>
<g id="Clip path group_5">
<mask id="mask4_49_417" style="mask-type:luminance" maskUnits="userSpaceOnUse" x="326" y="218" width="9" height="9">
<g id="freepik--clip-path-5--inject-174">
<path id="Vector_67" d="M333.364 225.216C332.774 225.806 332.023 226.208 331.205 226.371C330.386 226.533 329.538 226.45 328.768 226.13C327.997 225.811 327.338 225.27 326.875 224.577C326.411 223.883 326.164 223.068 326.164 222.233C326.164 221.399 326.411 220.584 326.875 219.89C327.338 219.197 327.997 218.656 328.768 218.337C329.538 218.017 330.386 217.934 331.205 218.096C332.023 218.259 332.774 218.661 333.364 219.25C333.757 219.642 334.069 220.106 334.282 220.618C334.494 221.13 334.604 221.679 334.604 222.233C334.604 222.788 334.494 223.337 334.282 223.849C334.069 224.361 333.757 224.825 333.364 225.216Z" fill="white"/>
</g>
</mask>
<g mask="url(#mask4_49_417)">
<g id="Group_5">
<path id="Vector_68" opacity="0.6" d="M333.364 225.216C332.774 225.806 332.023 226.208 331.205 226.371C330.386 226.533 329.538 226.45 328.768 226.13C327.997 225.811 327.338 225.27 326.875 224.577C326.411 223.883 326.164 223.068 326.164 222.233C326.164 221.399 326.411 220.584 326.875 219.89C327.338 219.197 327.997 218.656 328.768 218.337C329.538 218.017 330.386 217.934 331.205 218.096C332.023 218.259 332.774 218.661 333.364 219.25C333.757 219.642 334.069 220.106 334.282 220.618C334.494 221.13 334.604 221.679 334.604 222.233C334.604 222.788 334.494 223.337 334.282 223.849C334.069 224.361 333.757 224.825 333.364 225.216Z" fill="#D1F4FF"/>
</g>
</g>
</g>
<path id="Vector_69" d="M333.364 225.216C332.774 225.806 332.023 226.208 331.205 226.371C330.386 226.533 329.538 226.45 328.768 226.13C327.997 225.811 327.338 225.27 326.875 224.577C326.411 223.883 326.164 223.068 326.164 222.233C326.164 221.399 326.411 220.584 326.875 219.89C327.338 219.197 327.997 218.656 328.768 218.337C329.538 218.017 330.386 217.934 331.205 218.096C332.023 218.259 332.774 218.661 333.364 219.25C333.757 219.642 334.069 220.106 334.282 220.618C334.494 221.13 334.604 221.679 334.604 222.233C334.604 222.788 334.494 223.337 334.282 223.849C334.069 224.361 333.757 224.825 333.364 225.216Z" stroke="#1B3308" stroke-linecap="round" stroke-linejoin="round"/>
<path id="Vector_70" d="M328.481 222.233L329.963 223.649L332.139 220.656" stroke="#1B3308" stroke-linecap="round" stroke-linejoin="round"/>
<path id="Vector_71" d="M357.884 136.686C356.603 135.407 354.868 134.689 353.058 134.689C351.248 134.689 349.513 135.407 348.232 136.686C346.953 137.967 346.235 139.702 346.235 141.512C346.235 143.322 346.953 145.057 348.232 146.338L353.058 151.164L357.884 146.338C358.518 145.704 359.021 144.952 359.365 144.124C359.708 143.296 359.885 142.408 359.885 141.512C359.885 140.616 359.708 139.728 359.365 138.9C359.021 138.072 358.518 137.319 357.884 136.686Z" fill="#930000" stroke="#1B3308" stroke-linecap="round" stroke-linejoin="round"/>
<path id="Vector_72" d="M356.041 144.495C355.451 145.085 354.699 145.486 353.881 145.649C353.063 145.812 352.215 145.728 351.444 145.409C350.674 145.09 350.015 144.549 349.552 143.855C349.088 143.162 348.841 142.346 348.841 141.512C348.841 140.678 349.088 139.862 349.552 139.169C350.015 138.475 350.674 137.934 351.444 137.615C352.215 137.296 353.063 137.212 353.881 137.375C354.699 137.538 355.451 137.939 356.041 138.529C356.83 139.321 357.273 140.394 357.273 141.512C357.273 142.63 356.83 143.703 356.041 144.495Z" fill="#8EB97E"/>
<g id="Clip path group_6">
<mask id="mask5_49_417" style="mask-type:luminance" maskUnits="userSpaceOnUse" x="348" y="137" width="10" height="9">
<g id="freepik--clip-path-6--inject-174">
<path id="Vector_73" d="M356.041 144.495C355.451 145.085 354.699 145.486 353.881 145.649C353.063 145.812 352.215 145.728 351.444 145.409C350.674 145.09 350.015 144.549 349.552 143.855C349.088 143.162 348.841 142.346 348.841 141.512C348.841 140.678 349.088 139.862 349.552 139.169C350.015 138.475 350.674 137.934 351.444 137.615C352.215 137.296 353.063 137.212 353.881 137.375C354.699 137.538 355.451 137.939 356.041 138.529C356.83 139.321 357.273 140.394 357.273 141.512C357.273 142.63 356.83 143.703 356.041 144.495Z" fill="white"/>
</g>
</mask>
<g mask="url(#mask5_49_417)">
<g id="Group_6">
<path id="Vector_74" opacity="0.6" d="M356.041 144.495C355.451 145.085 354.699 145.486 353.881 145.649C353.063 145.812 352.215 145.728 351.444 145.409C350.674 145.09 350.015 144.549 349.552 143.855C349.088 143.162 348.841 142.346 348.841 141.512C348.841 140.678 349.088 139.862 349.552 139.169C350.015 138.475 350.674 137.934 351.444 137.615C352.215 137.296 353.063 137.212 353.881 137.375C354.699 137.538 355.451 137.939 356.041 138.529C356.83 139.321 357.273 140.394 357.273 141.512C357.273 142.63 356.83 143.703 356.041 144.495Z" fill="#D1F4FF"/>
</g>
</g>
</g>
<path id="Vector_75" d="M356.041 144.495C355.451 145.085 354.699 145.486 353.881 145.649C353.063 145.812 352.215 145.728 351.444 145.409C350.674 145.09 350.015 144.549 349.552 143.855C349.088 143.162 348.841 142.346 348.841 141.512C348.841 140.678 349.088 139.862 349.552 139.169C350.015 138.475 350.674 137.934 351.444 137.615C352.215 137.296 353.063 137.212 353.881 137.375C354.699 137.538 355.451 137.939 356.041 138.529C356.83 139.321 357.273 140.394 357.273 141.512C357.273 142.63 356.83 143.703 356.041 144.495Z" stroke="#1B3308" stroke-linecap="round" stroke-linejoin="round"/>
<path id="Vector_76" d="M351.148 141.512L352.63 142.927L354.815 139.935" stroke="#1B3308" stroke-linecap="round" stroke-linejoin="round"/>
<path id="Vector_77" d="M371.535 227.392C370.902 226.758 370.15 226.255 369.322 225.911C368.493 225.568 367.606 225.391 366.709 225.391C365.813 225.391 364.925 225.568 364.097 225.911C363.269 226.255 362.517 226.758 361.883 227.392C361.249 228.025 360.746 228.778 360.403 229.606C360.059 230.434 359.883 231.322 359.883 232.218C359.883 233.114 360.059 234.002 360.403 234.83C360.746 235.658 361.249 236.411 361.883 237.044L366.709 241.86L371.535 237.044C372.814 235.763 373.532 234.028 373.532 232.218C373.532 230.408 372.814 228.673 371.535 227.392Z" fill="#930000" stroke="#1B3308" stroke-linecap="round" stroke-linejoin="round"/>
<path id="Vector_78" d="M369.692 235.192C369.103 235.783 368.351 236.186 367.533 236.349C366.714 236.513 365.865 236.43 365.094 236.111C364.323 235.792 363.663 235.252 363.199 234.558C362.735 233.864 362.487 233.048 362.487 232.213C362.487 231.378 362.735 230.563 363.199 229.869C363.663 229.175 364.323 228.634 365.094 228.315C365.865 227.996 366.714 227.913 367.533 228.077C368.351 228.241 369.103 228.644 369.692 229.235C370.481 230.026 370.923 231.097 370.923 232.213C370.923 233.33 370.481 234.401 369.692 235.192Z" fill="#8EB97E"/>
<g id="Clip path group_7">
<mask id="mask6_49_417" style="mask-type:luminance" maskUnits="userSpaceOnUse" x="362" y="227" width="9" height="10">
<g id="freepik--clip-path-7--inject-174">
<path id="Vector_79" d="M369.692 235.192C369.103 235.783 368.351 236.186 367.533 236.349C366.714 236.513 365.865 236.43 365.094 236.111C364.323 235.792 363.663 235.252 363.199 234.558C362.735 233.864 362.487 233.048 362.487 232.213C362.487 231.378 362.735 230.563 363.199 229.869C363.663 229.175 364.323 228.634 365.094 228.315C365.865 227.996 366.714 227.913 367.533 228.077C368.351 228.241 369.103 228.644 369.692 229.235C370.481 230.026 370.923 231.097 370.923 232.213C370.923 233.33 370.481 234.401 369.692 235.192Z" fill="white"/>
</g>
</mask>
<g mask="url(#mask6_49_417)">
<g id="Group_7">
<path id="Vector_80" opacity="0.6" d="M369.692 235.192C369.103 235.783 368.351 236.186 367.533 236.349C366.714 236.513 365.865 236.43 365.094 236.111C364.323 235.792 363.663 235.252 363.199 234.558C362.735 233.864 362.487 233.048 362.487 232.213C362.487 231.378 362.735 230.563 363.199 229.869C363.663 229.175 364.323 228.634 365.094 228.315C365.865 227.996 366.714 227.913 367.533 228.077C368.351 228.241 369.103 228.644 369.692 229.235C370.481 230.026 370.923 231.097 370.923 232.213C370.923 233.33 370.481 234.401 369.692 235.192Z" fill="#D1F4FF"/>
</g>
</g>
</g>
<path id="Vector_81" d="M369.692 235.192C369.103 235.783 368.351 236.186 367.533 236.349C366.714 236.513 365.865 236.43 365.094 236.111C364.323 235.792 363.663 235.252 363.199 234.558C362.735 233.864 362.487 233.048 362.487 232.213C362.487 231.378 362.735 230.563 363.199 229.869C363.663 229.175 364.323 228.634 365.094 228.315C365.865 227.996 366.714 227.913 367.533 228.077C368.351 228.241 369.103 228.644 369.692 229.235C370.481 230.026 370.923 231.097 370.923 232.213C370.923 233.33 370.481 234.401 369.692 235.192Z" stroke="#1B3308" stroke-linecap="round" stroke-linejoin="round"/>
<path id="Vector_82" d="M364.8 232.218L366.282 233.624L368.457 230.641" stroke="#1B3308" stroke-linecap="round" stroke-linejoin="round"/>
<path id="Vector_83" d="M258.608 87.3145H247.465V92.0455H258.608V87.3145Z" fill="#D1F4FF" stroke="#1B3308" stroke-linecap="round" stroke-linejoin="round"/>
<path id="Vector_84" d="M260.329 88.103H258.6V91.2475H260.329V88.103Z" fill="#D1F4FF" stroke="#1B3308" stroke-linecap="round" stroke-linejoin="round"/>
<path id="Vector_85" d="M366.073 90.326H364.097V92.0455H366.073V90.326Z" fill="#D1F4FF" stroke="#1B3308" stroke-linecap="round" stroke-linejoin="round"/>
<path id="Vector_86" d="M369.92 88.597H367.944V92.0455H369.92V88.597Z" fill="#D1F4FF" stroke="#1B3308" stroke-linecap="round" stroke-linejoin="round"/>
<path id="Vector_87" d="M373.777 86.8775H371.801V92.0455H373.777V86.8775Z" fill="#D1F4FF" stroke="#1B3308" stroke-linecap="round" stroke-linejoin="round"/>
<path id="Vector_88" d="M377.634 85.1485H375.658V92.0455H377.634V85.1485Z" fill="#D1F4FF" stroke="#1B3308" stroke-linecap="round" stroke-linejoin="round"/>
<path id="Vector_89" d="M254.097 270.551H299.526C299.824 270.551 300.119 270.492 300.395 270.378C300.67 270.264 300.92 270.096 301.131 269.886C301.342 269.675 301.509 269.424 301.623 269.149C301.737 268.873 301.796 268.578 301.796 268.28C301.796 267.982 301.737 267.687 301.623 267.411C301.509 267.136 301.342 266.885 301.131 266.675C300.92 266.464 300.67 266.296 300.395 266.182C300.119 266.068 299.824 266.01 299.526 266.01H254.097C253.495 266.01 252.917 266.249 252.491 266.675C252.065 267.1 251.826 267.678 251.826 268.28C251.826 268.882 252.065 269.46 252.491 269.886C252.917 270.311 253.495 270.551 254.097 270.551Z" fill="#930000" stroke="#1B3308" stroke-linecap="round" stroke-linejoin="round"/>
<path id="Vector_90" d="M372.115 275.5H252.985C252.824 275.485 252.662 275.504 252.51 275.556C252.357 275.607 252.217 275.69 252.098 275.798C251.979 275.907 251.884 276.039 251.819 276.187C251.754 276.334 251.721 276.493 251.721 276.654C251.721 276.815 251.754 276.975 251.819 277.122C251.884 277.269 251.979 277.401 252.098 277.51C252.217 277.619 252.357 277.701 252.51 277.753C252.662 277.804 252.824 277.823 252.985 277.808H372.115C372.275 277.823 372.437 277.804 372.589 277.753C372.742 277.701 372.882 277.619 373.001 277.51C373.12 277.401 373.215 277.269 373.28 277.122C373.345 276.975 373.378 276.815 373.378 276.654C373.378 276.493 373.345 276.334 373.28 276.187C373.215 276.039 373.12 275.907 373.001 275.798C372.882 275.69 372.742 275.607 372.589 275.556C372.437 275.504 372.275 275.485 372.115 275.5Z" fill="#930000" stroke="#1B3308" stroke-linecap="round" stroke-linejoin="round"/>
<path id="Vector_91" d="M372.115 281.685H252.985C252.824 281.67 252.662 281.689 252.51 281.74C252.357 281.792 252.217 281.874 252.098 281.983C251.979 282.092 251.884 282.224 251.819 282.371C251.754 282.518 251.721 282.678 251.721 282.839C251.721 283 251.754 283.159 251.819 283.306C251.884 283.454 251.979 283.586 252.098 283.695C252.217 283.803 252.357 283.886 252.51 283.937C252.662 283.989 252.824 284.008 252.985 283.993H372.115C372.275 284.008 372.437 283.989 372.589 283.937C372.742 283.886 372.882 283.803 373.001 283.695C373.12 283.586 373.215 283.454 373.28 283.306C373.345 283.159 373.378 283 373.378 282.839C373.378 282.678 373.345 282.518 373.28 282.371C373.215 282.224 373.12 282.092 373.001 281.983C372.882 281.874 372.742 281.792 372.589 281.74C372.437 281.689 372.275 281.67 372.115 281.685Z" fill="#930000" stroke="#1B3308" stroke-linecap="round" stroke-linejoin="round"/>
<path id="Vector_92" d="M343.615 287.85H252.985C252.824 287.835 252.662 287.854 252.51 287.906C252.357 287.957 252.217 288.04 252.098 288.148C251.979 288.257 251.884 288.389 251.819 288.537C251.754 288.684 251.721 288.843 251.721 289.004C251.721 289.165 251.754 289.325 251.819 289.472C251.884 289.619 251.979 289.751 252.098 289.86C252.217 289.969 252.357 290.051 252.51 290.103C252.662 290.154 252.824 290.173 252.985 290.158H343.615C343.775 290.173 343.937 290.154 344.089 290.103C344.242 290.051 344.382 289.969 344.501 289.86C344.62 289.751 344.715 289.619 344.78 289.472C344.845 289.325 344.878 289.165 344.878 289.004C344.878 288.843 344.845 288.684 344.78 288.537C344.715 288.389 344.62 288.257 344.501 288.148C344.382 288.04 344.242 287.957 344.089 287.906C343.937 287.854 343.775 287.835 343.615 287.85Z" fill="#930000" stroke="#1B3308" stroke-linecap="round" stroke-linejoin="round"/>
<path id="Vector_93" d="M354.786 317.176H346.312V325.651H354.786V317.176Z" fill="#930000" stroke="#1B3308" stroke-linecap="round" stroke-linejoin="round"/>
<path id="Vector_94" d="M369.549 325.651C370.673 325.651 371.751 325.204 372.545 324.41C373.34 323.615 373.786 322.537 373.786 321.413C373.786 320.29 373.34 319.212 372.545 318.417C371.751 317.623 370.673 317.176 369.549 317.176C368.426 317.176 367.348 317.623 366.553 318.417C365.759 319.212 365.312 320.29 365.312 321.413C365.313 322.537 365.759 323.615 366.553 324.41C367.348 325.204 368.426 325.651 369.549 325.651Z" fill="#930000" stroke="#1B3308" stroke-linecap="round" stroke-linejoin="round"/>
<path id="Vector_95" d="M326.362 325.651H336.736L331.549 317.176L326.362 325.651Z" fill="#930000" stroke="#1B3308" stroke-linecap="round" stroke-linejoin="round"/>
<path id="Vector_96" d="M295.193 198.911H251.445V246.525H295.193V198.911Z" fill="#D1F4FF"/>
<g id="Clip path group_8">
<mask id="mask7_49_417" style="mask-type:luminance" maskUnits="userSpaceOnUse" x="251" y="198" width="45" height="49">
<g id="freepik--clip-path-8--inject-174">
<path id="Vector_97" d="M295.193 198.911H251.445V246.525H295.193V198.911Z" fill="white"/>
</g>
</mask>
<g mask="url(#mask7_49_417)">
<g id="Group_8">
<g id="Group_9" opacity="0.4">
<path id="Vector_98" d="M295.193 202.426C294.632 203.006 294.186 203.642 293.701 203.566C292.704 203.405 291.991 203.87 291.421 203.566C290.851 203.262 290.709 204.801 290.709 204.801L289.711 205.666L288.856 205.97C288.856 205.97 288.419 206.749 288.856 207.148C289.293 207.547 289.759 208.25 288.657 208.25H286.899C286.899 208.25 286.329 207.176 285.617 207.148C284.904 207.119 284.619 205.666 284.619 205.666V204.431L282.045 205.666C282.045 205.666 280.477 206.027 280.477 206.568V208.468L279.765 209.846L282.187 210.245L283.052 208.867C283.052 208.867 284.049 208.516 284.192 209.162C284.295 210.086 284.343 211.015 284.334 211.945C283.977 212.493 283.69 213.083 283.479 213.703C284.429 214.653 284.192 214.871 284.762 215.052C285.023 215.19 285.242 215.398 285.393 215.653C285.544 215.908 285.621 216.199 285.617 216.496V216.942C285.617 216.942 282.9 217.151 284.762 218.405C285.322 218.785 285.541 218.937 285.607 218.994L285.75 219.08C286.055 219.23 286.342 219.415 286.605 219.631C286.605 219.631 286.738 219.583 287.317 219.631C288.172 219.754 288.742 217.731 289.749 219.042C290.361 219.903 291.028 220.725 291.744 221.502L292.172 221.901L295.022 222.747H295.221L295.193 202.426Z" fill="#8EB97E"/>
<path id="Vector_99" d="M255.236 246.345V246.278C255.236 245.442 256.661 245.689 257.088 245.043C257.516 244.397 258.371 243.314 258.371 243.314V242.545L258.665 241.452C258.95 240.369 259.805 241.832 260.803 241.88C261.8 241.927 262.703 241.832 262.798 241.12C262.893 240.407 262.798 241.119 262.798 239.571C262.798 238.022 262.798 238.982 263.805 238.944L265.657 239.571C266.45 239.845 267.259 240.067 268.08 240.236C269.362 240.493 268.65 241.452 268.65 241.452L270.55 242.06H273.257L274.207 243.162L275.157 243.314H276.924L277.637 242.06C277.985 241.803 278.369 241.599 278.777 241.452C279.355 241.457 279.929 241.537 280.487 241.69H281.437C282.387 241.69 282.235 240.331 282.235 240.331L282.805 239.6L283.099 238.973L284.382 237.291L285.265 236.408C286.139 235.524 285.664 235.154 285.664 235.154L285.265 234.204C284.857 233.253 286.092 234.09 286.092 234.09C286.917 234.359 287.726 234.676 288.514 235.04C290.091 235.714 289.806 234.517 289.949 234.09C290.032 233.024 289.783 231.958 289.236 231.04C288.514 229.615 289.236 231.04 288.809 231.287C288.498 231.478 288.134 231.561 287.771 231.523C287.409 231.486 287.069 231.329 286.804 231.078C286.939 230.817 287.01 230.527 287.01 230.233C287.01 229.938 286.939 229.648 286.804 229.387C286.377 228.295 285.807 229.33 285.094 229.387C284.599 229.42 284.105 229.312 283.669 229.074C283.384 228.941 283.232 228.494 282.377 228.228C281.522 227.962 281.807 228.228 280.525 230.005H279.812C279.812 230.005 279.527 230.954 279.1 231.097C278.762 231.154 278.415 231.104 278.108 230.952C277.801 230.8 277.549 230.555 277.39 230.251C277.105 229.586 278.957 229.349 280.382 228.912C281.807 228.475 279.67 227.012 279.67 227.012L279.527 225.758L278.957 225.188C278.387 224.618 277.247 224.903 276.82 223.611C276.392 222.319 277.247 223.051 276.525 222.262C276.145 221.824 275.696 221.452 275.195 221.16C275.195 221.16 271.68 222.053 270.54 221.16C269.4 220.267 269.248 221.445 269.248 221.445L267.899 223.108V225.15H265.049L264.099 223.773C264.099 223.773 262.817 221.284 263.672 221.103C264.527 220.923 264.821 221.103 264.821 221.103L265.819 219.992C265.819 219.992 267.082 220.105 267.225 219.725C267.367 219.345 266.797 217.968 266.797 217.968L265.087 216.685L264.08 216.267C263.083 215.849 262.798 215.688 262.798 215.688L262.228 215.184C261.658 214.681 261.278 215.83 260.803 215.868C260.328 215.906 258.95 214.548 258.523 213.683C258.095 212.819 260.09 213.541 260.66 213.151C261.23 212.762 261.658 212.116 261.658 210.14C261.658 208.164 260.945 209.979 260.375 210.254C259.536 210.556 258.611 210.515 257.801 210.14C256.661 209.731 257.516 209.551 256.803 209.57C256.091 209.589 252.956 210.14 252.956 210.14C252.956 210.14 252.196 211.09 251.445 212.04V246.335L255.236 246.345Z" fill="#8EB97E"/>
<path id="Vector_100" d="M265.819 212.145C264.365 210.064 268.08 210.244 268.507 210.463C269.133 210.601 269.782 210.601 270.407 210.463V209.599C270.407 209.599 271.357 209.599 271.832 209.599C272.307 209.599 272.972 208.772 273.115 209.675C273.188 210.347 273.188 211.025 273.115 211.698C273.115 212.145 272.811 212.781 273.181 213.18C273.552 213.579 271.832 214.035 271.832 214.52C271.832 215.004 272.402 217.369 271.262 215.897C270.122 214.424 270.398 213.94 269.543 213.541L268.688 213.142C268.688 213.142 267.415 214.434 265.819 212.145Z" fill="#8EB97E"/>
<path id="Vector_101" d="M258.808 201.723L258.523 201.153H257.573C256.978 200.447 256.343 199.775 255.673 199.139C256.429 199.348 257.235 199.267 257.934 198.911H251.455V206.616C251.545 206.743 251.676 206.837 251.826 206.882C252.782 206.981 253.749 206.901 254.676 206.644C255.531 206.416 254.676 206.008 254.676 204.868C254.676 203.727 255.626 204.868 255.626 204.868L256.576 204.402C256.974 204.059 257.27 203.611 257.431 203.11C257.725 202.246 258.048 203.11 258.048 203.11L259.302 203.5C259.302 203.5 260.433 203.547 260.433 203.11C260.433 202.673 258.808 201.723 258.808 201.723Z" fill="#8EB97E"/>
<path id="Vector_102" d="M295.193 239.685C295.069 240.065 295.041 240.635 294.623 240.93C293.91 241.357 294.623 240.93 293.91 240.93C293.198 240.93 292.77 241.671 293.131 242.782L292.039 242.944V242.25L290.205 241.823L289.968 241.88C289.46 242.534 289.132 243.311 289.018 244.131C288.069 244.202 287.116 244.202 286.168 244.131C284.743 244.017 286.168 244.863 286.168 244.863L288.448 245.252L289.312 244.863C290.167 244.483 290.88 246.022 290.88 246.022C291.198 245.338 291.58 244.687 292.02 244.074C292.447 243.618 293.444 244.255 294.584 244.131L295.155 243.818L295.193 239.685Z" fill="#8EB97E"/>
</g>
</g>
</g>
</g>
<path id="Vector_103" d="M295.193 198.911H251.445V246.525H295.193V198.911Z" stroke="#1B3308" stroke-linecap="round" stroke-linejoin="round"/>
</g>
<g id="freepik--Character--inject-174">
<path id="Vector_104" d="M156.826 262.789C156.826 262.789 178.971 299.659 181.013 311.239C183.027 322.639 146.205 388.189 149.739 397.081C153.273 405.973 155.696 414.685 162.004 417.592C168.312 420.499 165.12 422.209 160.759 422.693C156.399 423.178 146.224 421.354 141.085 415.046C135.945 408.738 129.685 411.578 127.965 406.762C126.417 402.335 128.716 400.625 134.197 391.875C139.679 383.126 144.163 359.841 145.502 347.719C147.858 326.401 157.064 312.094 157.064 312.094C157.064 312.094 141.968 297.379 133.998 282.806L156.826 262.789Z" fill="#BFBFBF" stroke="#1D2417" stroke-linecap="round" stroke-linejoin="round"/>
<path id="Vector_105" d="M133 282.986C133 282.986 131.1 321.299 129.694 328.272C128.288 335.245 125.894 344.023 124.782 350.046C120.346 373.54 112.271 393.053 113.572 407.673C113.943 411.815 116.821 415.967 123.652 420.916C130.691 426.008 140.799 425.21 139.023 427.965C132.439 438.159 115.852 429.922 107.388 430.378C103.464 430.597 94.7245 433.076 94.62 425.201C94.5345 419.187 97.47 415.796 98.743 407.673C102.049 387.182 97.888 371.326 99.3795 358.786C101.431 341.639 106.742 335.036 104.804 324.026C102.866 313.015 99.104 291.289 96.71 271.158C94.316 251.028 133 282.986 133 282.986Z" fill="#BFBFBF" stroke="#1D2417" stroke-linecap="round" stroke-linejoin="round"/>
<path id="Vector_106" d="M127.243 139.061C127.243 139.061 137.218 135.698 141.493 135.375C144.343 135.156 152.656 130.435 152.656 130.435C152.656 130.435 153.473 128.278 154.413 128.269C159.401 128.269 167.799 137.313 168.958 145.92C170.174 154.945 163.885 155.6 163.885 155.6C156.494 168.188 151.991 163.951 148.105 172.947C146.044 177.716 127.243 139.061 127.243 139.061Z" fill="#507C40"/>
<g id="Clip path group_9">
<mask id="mask8_49_417" style="mask-type:luminance" maskUnits="userSpaceOnUse" x="127" y="128" width="43" height="46">
<g id="freepik--clip-path-9--inject-174">
<path id="Vector_107" d="M127.243 139.061C127.243 139.061 137.218 135.698 141.493 135.375C144.343 135.156 152.656 130.435 152.656 130.435C152.656 130.435 153.473 128.278 154.413 128.269C159.401 128.269 167.799 137.313 168.958 145.92C170.174 154.945 163.885 155.6 163.885 155.6C156.494 168.188 151.991 163.951 148.105 172.947C146.044 177.716 127.243 139.061 127.243 139.061Z" fill="white"/>
</g>
</mask>
<g mask="url(#mask8_49_417)">
<g id="Group_10">
<path id="Vector_108" opacity="0.2" d="M165.557 155.04C165.033 155.322 164.464 155.512 163.875 155.6C156.484 168.188 151.981 163.951 148.096 172.947C147.611 174.068 146.196 172.805 144.353 170.211L145.303 147.516C145.303 147.516 150.651 154.052 155.534 157.367C155.534 157.367 153.026 152.95 155.534 152.437C157.016 152.123 160.987 153.9 165.557 155.04Z" fill="black" fill-opacity="0.7"/>
</g>
</g>
</g>
<path id="Vector_109" d="M127.243 139.061C127.243 139.061 137.218 135.698 141.493 135.375C144.343 135.156 152.656 130.435 152.656 130.435C152.656 130.435 153.473 128.278 154.413 128.269C159.401 128.269 167.799 137.313 168.958 145.92C170.174 154.945 163.885 155.6 163.885 155.6C156.494 168.188 151.991 163.951 148.105 172.947C146.044 177.716 127.243 139.061 127.243 139.061Z" stroke="#1D2417" stroke-linecap="round" stroke-linejoin="round"/>
<path id="Vector_110" d="M164.796 150.841C175.008 137.74 188.688 119.966 186.266 114.323C183.843 108.68 168.083 103.683 160.806 101.602C153.529 99.522 139.336 95.5415 139.336 95.5415C139.336 95.5415 128.772 86.887 127.375 86.887C125.979 86.887 118.73 91.3425 118.73 91.3425C118.73 91.3425 122.017 102.296 122.169 101.792C122.321 101.289 138.462 102.191 147.306 109.848C152.601 114.441 158.702 118.01 165.299 120.374C162.293 123.995 158.991 127.36 155.429 130.435C154.995 134.101 155.472 137.817 156.816 141.255C159.941 149.748 164.796 150.841 164.796 150.841Z" fill="#BFBFBF" stroke="#1D2417" stroke-linecap="round" stroke-linejoin="round"/>
<path id="Vector_111" d="M149.092 206.197C148.845 218.319 145.131 235.989 131.584 237.367C118.037 238.744 97.0799 237.196 82.7064 243.257C68.3329 249.318 68.6844 231.8 68.6844 231.8C68.6844 231.8 89.8124 198.208 97.9539 187.15C106.095 176.092 143.316 167.931 143.316 167.931C143.316 167.931 149.491 186.114 149.092 206.197Z" fill="#1D2417" stroke="#1D2417" stroke-linecap="round" stroke-linejoin="round"/>
<path id="Vector_112" d="M85.4994 155.98C94.8474 145.92 114.655 142.747 114.655 142.747C114.655 142.747 135.26 148.589 139.877 161.519C144.494 174.448 144.95 200.117 144.95 200.117L149.111 247.114C149.111 247.114 113.961 253.498 100.129 249.764C100.129 249.764 101.222 217.246 96.0729 202.264C90.9239 187.283 79.1724 162.763 85.4994 155.98Z" fill="#BFBFBF" stroke="#1D2417" stroke-linecap="round" stroke-linejoin="round"/>
<g id="Vector_113">
<path d="M134.225 139.213C126.141 138.396 116.679 141.256 116.679 141.256C126.274 144.837 134.244 157.406 134.244 157.406C141.189 166.079 147.592 192.043 149.093 206.236C149.093 206.236 150.043 150.081 142.975 142.785" fill="#507C40"/>
<path d="M134.225 139.213C126.141 138.396 116.679 141.256 116.679 141.256C126.274 144.837 134.244 157.406 134.244 157.406C141.189 166.079 147.592 192.043 149.093 206.236C149.093 206.236 150.043 150.081 142.975 142.785" stroke="#1D2417" stroke-linecap="round" stroke-linejoin="round"/>
</g>
<g id="Vector_114">
<path d="M102.276 156.674C102.276 156.674 116.526 158.574 120.754 158.403C122.027 158.378 123.289 158.647 124.442 159.187C125.595 159.727 126.608 160.525 127.404 161.519" fill="#BFBFBF"/>
<path d="M102.276 156.674C102.276 156.674 116.526 158.574 120.754 158.403C122.027 158.378 123.289 158.647 124.442 159.187C125.595 159.727 126.608 160.525 127.404 161.519" stroke="#1D2417" stroke-linecap="round" stroke-linejoin="round"/>
</g>
<g id="Vector_115">
<path d="M134.112 154.251C134.112 154.251 129.362 157.709 129.134 157.709C129.039 158.632 129.039 159.561 129.134 160.483" fill="#BFBFBF"/>
<path d="M134.112 154.251C134.112 154.251 129.362 157.709 129.134 157.709C129.039 158.632 129.039 159.561 129.134 160.483" stroke="#1D2417" stroke-linecap="round" stroke-linejoin="round"/>
</g>
<path id="Vector_116" d="M105.972 137.75C117.799 136.942 127.641 142.367 132.828 145.834C138.015 149.302 141.483 156.683 141.483 156.683L134.244 151.401V157.377C134.244 157.377 111.168 141.16 100.11 147.307C100.11 147.297 98.2199 138.263 105.972 137.75Z" fill="#507C40"/>
<g id="Clip path group_10">
<mask id="mask9_49_417" style="mask-type:luminance" maskUnits="userSpaceOnUse" x="99" y="137" width="43" height="21">
<g id="freepik--clip-path-10--inject-174">
<path id="Vector_117" d="M105.972 137.75C117.799 136.942 127.641 142.367 132.828 145.834C138.015 149.302 141.483 156.683 141.483 156.683L134.244 151.401V157.377C134.244 157.377 111.168 141.16 100.11 147.307C100.11 147.297 98.2199 138.263 105.972 137.75Z" fill="white"/>
</g>
</mask>
<g mask="url(#mask9_49_417)">
<g id="Group_11">
<path id="Vector_118" opacity="0.2" d="M132.648 156.303C127.556 152.997 111.444 143.336 101.811 146.566C101.811 144.979 102.571 142.908 105.449 141.255C110.741 138.234 130.083 144.162 132.648 156.303Z" fill="black" fill-opacity="0.7"/>
</g>
</g>
</g>
<path id="Vector_119" d="M105.972 137.75C117.799 136.942 127.641 142.367 132.828 145.834C138.015 149.302 141.483 156.683 141.483 156.683L134.244 151.401V157.377C134.244 157.377 111.168 141.16 100.11 147.307C100.11 147.297 98.2199 138.263 105.972 137.75Z" stroke="#1D2417" stroke-linecap="round" stroke-linejoin="round"/>
<g id="Vector_120">
<path d="M105.973 147.649C110.067 136.591 107.616 128.478 107.616 128.478C109.78 128.294 111.953 128.231 114.124 128.288C119.824 128.449 127.177 129.57 127.348 134.339C127.409 136.508 127.333 138.678 127.12 140.837C126.669 145.341 125.987 149.818 125.077 154.251" fill="#BFBFBF"/>
<path d="M105.973 147.649C110.067 136.591 107.616 128.478 107.616 128.478C109.78 128.294 111.953 128.231 114.124 128.288C119.824 128.449 127.177 129.57 127.348 134.339C127.409 136.508 127.333 138.678 127.12 140.837C126.669 145.341 125.987 149.818 125.077 154.251" stroke="#1D2417" stroke-linecap="round" stroke-linejoin="round"/>
</g>
<path id="Vector_121" d="M127.119 140.837C114.855 138.719 114.855 131.565 114.855 131.565L114.123 128.288C119.823 128.449 127.176 129.57 127.347 134.339C127.409 136.508 127.332 138.678 127.119 140.837Z" fill="#1D2417"/>
<path id="Vector_122" d="M88.3495 123.31C87.1715 128.782 99.0845 128.906 119.205 116.66C139.326 104.415 146.432 95.8645 138.11 92.3495C129.788 88.8345 92.691 102.885 88.3495 123.31Z" fill="#930000"/>
<g id="Clip path group_11">
<mask id="mask10_49_417" style="mask-type:luminance" maskUnits="userSpaceOnUse" x="88" y="91" width="54" height="36">
<g id="freepik--clip-path-11--inject-174">
<path id="Vector_123" d="M88.3495 123.31C87.1715 128.782 99.0845 128.905 119.205 116.66C139.326 104.414 146.432 95.8645 138.11 92.3495C129.788 88.8345 92.691 102.885 88.3495 123.31Z" fill="white"/>
</g>
</mask>
<g mask="url(#mask10_49_417)">
<g id="Group_12">
<path id="Vector_124" opacity="0.2" d="M95.2371 123.31C92.8431 123.386 95.4366 111.587 113.183 102.41C130.929 93.233 136.068 97.5175 135.128 100.51C134.187 103.503 107.901 122.911 95.2371 123.31Z" fill="black" fill-opacity="0.7"/>
</g>
</g>
</g>
<path id="Vector_125" d="M88.3495 123.31C87.1715 128.782 99.0845 128.906 119.205 116.66C139.326 104.415 146.432 95.8645 138.11 92.3495C129.788 88.8345 92.691 102.885 88.3495 123.31Z" stroke="#1D2417" stroke-linecap="round" stroke-linejoin="round"/>
<g id="Vector_126">
<path d="M113.182 131.508C114.636 135.66 125.665 138.016 129.513 136.99C132.23 136.268 133.417 131.898 134.054 126.321C134.899 119.006 132.629 116.403 132.61 110.874C132.61 103.825 126.729 96.52 123.756 95.1805C115.101 91.276 100.082 97.2895 100.11 105.877C100.158 115.776 102.229 122.844 105.221 127.803C106.013 128.927 107.066 129.84 108.29 130.463" fill="#BFBFBF"/>
<path d="M113.182 131.508C114.636 135.66 125.665 138.016 129.513 136.99C132.23 136.268 133.417 131.898 134.054 126.321C134.899 119.006 132.629 116.403 132.61 110.874C132.61 103.825 126.729 96.52 123.756 95.1805C115.101 91.276 100.082 97.2895 100.11 105.877C100.158 115.776 102.229 122.844 105.221 127.803C106.013 128.927 107.066 129.84 108.29 130.463" stroke="#1D2417" stroke-linecap="round" stroke-linejoin="round"/>
</g>
<path id="Vector_127" d="M129.133 108.053C129.635 107.835 130.177 107.723 130.724 107.723C131.271 107.723 131.813 107.835 132.315 108.053" stroke="#1D2417" stroke-linecap="round" stroke-linejoin="round"/>
<path id="Vector_128" d="M123.5 108.917C122.452 108.711 121.367 108.783 120.355 109.126C119.344 109.47 118.439 110.072 117.733 110.874" stroke="#1D2417" stroke-linecap="round" stroke-linejoin="round"/>
<path id="Vector_129" d="M122.883 114.228C122.978 114.959 122.74 115.596 122.341 115.653C121.942 115.71 121.553 115.149 121.448 114.418C121.344 113.686 121.6 113.04 121.99 112.993C122.379 112.945 122.788 113.487 122.883 114.228Z" fill="#1D2417"/>
<path id="Vector_130" d="M131.717 112.689C131.822 113.42 131.575 114.057 131.185 114.114C130.796 114.171 130.387 113.61 130.292 112.879C130.197 112.147 130.435 111.501 130.834 111.454C131.233 111.406 131.622 111.957 131.717 112.689Z" fill="#1D2417"/>
<g id="Vector_131">
<path d="M128.649 109.107C128.649 109.107 127.832 112.423 128.411 113.914C128.991 115.406 134.453 118.74 134.111 120.564C133.769 122.388 127.604 122.664 127.366 121.514" fill="#BFBFBF"/>
<path d="M128.649 109.107C128.649 109.107 127.832 112.423 128.411 113.914C128.991 115.406 134.453 118.74 134.111 120.564C133.769 122.388 127.604 122.664 127.366 121.514" stroke="#1D2417" stroke-linecap="round" stroke-linejoin="round"/>
</g>
<path id="Vector_132" d="M132.316 125.495C129.063 126.675 125.536 126.876 122.17 126.074" stroke="#1D2417" stroke-linecap="round" stroke-linejoin="round"/>
<path id="Vector_133" d="M127.357 98.268C127.357 98.268 126.92 99.693 122.74 99.218C118.56 98.743 112.508 100.225 112.508 100.225C112.508 100.225 116.688 104.177 115.358 106.666C114.028 109.155 111.321 113.63 112.613 117.373C110.915 118.424 109.484 119.854 108.433 121.552C107.141 124.003 109.107 127.804 107.578 130.036C106.048 132.269 98.0777 123.804 96.6147 114.323C95.1517 104.842 95.6077 97.698 106.276 93.917C116.945 90.136 126.777 94.0975 127.357 98.268Z" fill="#1D2417"/>
<g id="Vector_134">
<path d="M111.711 118.864C111.711 118.864 109.811 112.518 106.894 112.983C103.978 113.449 102.667 120.688 104.111 122.274C105.555 123.861 107.464 127.803 109.193 127.803C110.922 127.803 111.711 124.953 111.711 124.953" fill="#BFBFBF"/>
<path d="M111.711 118.864C111.711 118.864 109.811 112.518 106.894 112.983C103.978 113.449 102.667 120.688 104.111 122.274C105.555 123.861 107.464 127.803 109.193 127.803C110.922 127.803 111.711 124.953 111.711 124.953" stroke="#1D2417" stroke-linecap="round" stroke-linejoin="round"/>
</g>
<path id="Vector_135" d="M125.941 93.7175C125.941 93.7175 120.241 88.2645 115.88 86.9725C115.88 86.9725 116.26 84.949 112.299 86.393C108.337 87.837 97.0989 91.4375 92.6244 98.0685C88.1499 104.699 92.6244 102.818 92.6244 102.818C92.6244 102.818 93.2989 110 94.7619 112.641C94.7619 112.651 109.249 96.292 125.941 93.7175Z" fill="#930000" stroke="#1D2417" stroke-linecap="round" stroke-linejoin="round"/>
<path id="Vector_136" d="M96.4436 117.258C96.4436 117.258 108.072 97.7455 132.829 97.8975L138.063 92.34C138.063 92.34 125.4 87.343 105.849 99.75C89.6606 109.924 88.3496 123.31 88.3496 123.31L96.4436 117.258Z" fill="#930000"/>
<path id="Vector_137" d="M96.4434 117.258C96.4434 117.258 108.071 97.7455 132.828 97.8975" stroke="#1D2417" stroke-linecap="round" stroke-linejoin="round"/>
<path id="Vector_138" d="M138.063 92.34C138.063 92.34 125.4 87.343 105.849 99.75C89.6606 109.924 88.3496 123.31 88.3496 123.31" stroke="#1D2417" stroke-linecap="round" stroke-linejoin="round"/>
<path id="Vector_139" d="M100.053 232.75C100.053 232.75 128.553 236.436 134.614 234.051C140.675 231.667 147.135 225.958 147.135 225.958C147.135 225.958 149.985 229.111 149.985 230.384V234.802C149.985 234.802 152.493 240.416 152.493 249.479C152.493 249.479 169.042 271.909 176.899 292.819C176.899 292.819 181.383 293.769 178.799 299.26C177.792 301.426 169.897 312.066 146.119 314.992C144.77 315.153 144.684 309.747 144.684 309.747C144.684 309.747 136.885 308.912 135.716 305.729L133.313 317.813C133.313 317.813 133.769 321.546 133.132 322.458C126.378 331.958 108.86 333.593 92.197 323.656C90.658 322.706 94.591 316.901 94.591 316.901C92.235 312.55 95.8545 300.2 95.8545 300.2C95.8545 300.2 91.76 286.017 92.2825 271.377C92.805 256.738 99.5025 243.143 99.5025 243.143C99.5025 243.143 97.4315 235.6 100.053 232.75Z" fill="#1D2417"/>
<path id="Vector_140" d="M111.71 190.256C115.545 190.971 119.429 191.39 123.328 191.51C128.344 191.51 131.584 186.76 131.584 186.76" stroke="#1D2417" stroke-linecap="round" stroke-linejoin="round"/>
<path id="Vector_141" d="M135.755 185.753C135.755 185.753 138.215 187.226 139.241 186.751C141.16 185.788 142.752 184.281 143.82 182.419" stroke="#1D2417" stroke-linecap="round" stroke-linejoin="round"/>
<g id="Vector_142">
<path d="M129.599 197.904C129.599 197.904 123.196 206.454 120.697 212.933L129.599 197.904Z" fill="#507C40"/>
<path d="M129.599 197.904C129.599 197.904 123.196 206.454 120.697 212.933" stroke="#1D2417" stroke-linecap="round" stroke-linejoin="round"/>
</g>
<g id="Vector_143">
<path d="M139.783 195.519C141.59 196.594 143.004 198.219 143.821 200.155L139.783 195.519Z" fill="#507C40"/>
<path d="M139.783 195.519C141.59 196.594 143.004 198.219 143.821 200.155" stroke="#1D2417" stroke-linecap="round" stroke-linejoin="round"/>
</g>
<path id="Vector_144" d="M114.855 154.251C114.855 154.251 115.311 167.409 116.679 176.757C118.047 186.105 98.2963 250.211 75.8288 259.549C75.8288 259.549 77.5673 255.16 75.8288 253.023C74.0903 250.885 60.8663 246.05 58.6243 238.089C56.3823 230.128 70.2428 219.364 70.2428 219.364C70.2428 219.364 86.8678 205.494 83.7518 196.84C80.6358 188.185 80.9778 156.674 80.9778 156.674C86.3564 152.49 92.1614 148.886 98.2963 145.92C98.2963 145.92 105.117 155.287 108.29 156.674C111.463 158.061 114.855 154.251 114.855 154.251Z" fill="#507C40"/>
<g id="Clip path group_12">
<mask id="mask11_49_417" style="mask-type:luminance" maskUnits="userSpaceOnUse" x="58" y="145" width="59" height="115">
<g id="freepik--clip-path-12--inject-174">
<path id="Vector_145" d="M114.855 154.251C114.855 154.251 115.311 167.409 116.679 176.757C118.047 186.105 98.2963 250.211 75.8288 259.549C75.8288 259.549 77.5673 255.16 75.8288 253.023C74.0903 250.885 60.8663 246.05 58.6243 238.089C56.3823 230.128 70.2428 219.364 70.2428 219.364C70.2428 219.364 86.8678 205.494 83.7518 196.84C80.6358 188.185 80.9778 156.674 80.9778 156.674C86.3564 152.49 92.1614 148.886 98.2963 145.92C98.2963 145.92 105.117 155.287 108.29 156.674C111.463 158.061 114.855 154.251 114.855 154.251Z" fill="white"/>
</g>
</mask>
<g mask="url(#mask11_49_417)">
<g id="Group_13">
<path id="Vector_146" opacity="0.2" d="M96.0544 200.155L96.4439 210.064L93.0239 209.209C93.0239 209.209 85.8514 229.672 62.3389 227.259C64.6756 224.342 67.3262 221.692 70.2429 219.355C70.2429 219.355 86.8679 205.485 83.7519 196.83C82.6024 193.648 81.9279 187.33 81.5289 180.68L96.8999 181.231C96.8999 181.231 95.7884 185.288 97.9544 187.14L99.6074 185.582C99.6074 185.582 101.773 195.272 96.0544 200.155Z" fill="black" fill-opacity="0.7"/>
</g>
</g>
</g>
<path id="Vector_147" d="M114.855 154.251C114.855 154.251 115.311 167.409 116.679 176.757C118.047 186.105 98.2963 250.211 75.8288 259.549C75.8288 259.549 77.5673 255.16 75.8288 253.023C74.0903 250.885 60.8663 246.05 58.6243 238.089C56.3823 230.128 70.2428 219.364 70.2428 219.364C70.2428 219.364 86.8678 205.494 83.7518 196.84C80.6358 188.185 80.9778 156.674 80.9778 156.674C86.3564 152.49 92.1614 148.886 98.2963 145.92C98.2963 145.92 105.117 155.287 108.29 156.674C111.463 158.061 114.855 154.251 114.855 154.251Z" stroke="#1D2417" stroke-linecap="round" stroke-linejoin="round"/>
<g id="Vector_148">
<path d="M102.049 142.747C100.092 147.364 114.855 154.251 114.855 154.251L111.711 163.951C111.711 163.951 96.0737 152.855 96.0547 147.649C96.0547 140.837 101.014 138.149 105.973 137.74" fill="#507C40"/>
<path d="M102.049 142.747C100.092 147.364 114.855 154.251 114.855 154.251L111.711 163.951C111.711 163.951 96.0737 152.855 96.0547 147.649C96.0547 140.837 101.014 138.149 105.973 137.74" stroke="#1D2417" stroke-linecap="round" stroke-linejoin="round"/>
</g>
<path id="Vector_149" d="M85.2432 273.79C85.2432 273.79 89.2902 274.598 90.3257 280.706C91.3612 286.815 88.6252 321.015 94.8287 322.145C101.032 323.276 102.913 304.57 102.913 304.57L104.319 303.62C104.319 303.62 102.125 325.698 94.6292 323.722C87.1337 321.746 87.9792 305.473 88.4257 298.813C88.8722 292.154 90.3257 277.913 84.0557 276.963L85.2432 273.79Z" fill="#507C40" stroke="#1D2417" stroke-linecap="round" stroke-linejoin="round"/>
<path id="Vector_150" d="M91.8739 193.515C91.8739 193.515 87.1239 215.821 87.5609 220.58C87.9979 225.34 90.4109 238.735 87.5609 249.821C84.7109 260.908 85.2524 280.706 85.2524 280.706H73.4724C73.4724 280.706 69.9669 236.816 71.2494 227.05C71.2494 227.05 69.9574 219.032 70.9739 215.526C71.9904 212.021 70.9739 200.744 71.9999 191.472C73.0259 182.2 91.8739 193.515 91.8739 193.515Z" fill="#BFBFBF" stroke="#1D2417" stroke-linecap="round" stroke-linejoin="round"/>
<g id="Vector_151">
<path d="M95.456 170.05C96.843 174.6 97.356 179.274 96.406 182.476C93.727 191.976 91.8365 202.711 91.8365 202.711C91.8365 202.711 93.955 205.561 91.8365 208.325C89.718 211.09 68.6755 206.919 64.163 202.711C59.6505 198.502 68.647 197.676 68.647 197.676C68.647 197.676 68.647 185.383 68.647 182.922C68.647 180.462 71.6775 178.286 71.6775 172.615C71.6775 166.943 76.0475 160.217 80.94 156.655C83.049 155.116 85.234 155.372 87.2955 156.759" fill="#507C40"/>
<path d="M95.456 170.05C96.843 174.6 97.356 179.274 96.406 182.476C93.727 191.976 91.8365 202.711 91.8365 202.711C91.8365 202.711 93.955 205.561 91.8365 208.325C89.718 211.09 68.6755 206.919 64.163 202.711C59.6505 198.503 68.647 197.676 68.647 197.676C68.647 197.676 68.647 185.383 68.647 182.922C68.647 180.462 71.6775 178.286 71.6775 172.615C71.6775 166.943 76.0475 160.217 80.94 156.655C83.049 155.116 85.234 155.372 87.2955 156.759" stroke="#1D2417" stroke-linecap="round" stroke-linejoin="round"/>
</g>
<path id="Vector_152" d="M95.9496 305.9C95.8166 306.27 94.8191 314.545 94.8191 314.545L95.9496 316.16L94.8191 325.185C94.8191 325.185 86.0506 330.315 79.1631 322.924L80.6641 313.424L82.6591 311.961L83.9226 303.658L95.9496 305.9Z" fill="#757575" stroke="#1D2417" stroke-linecap="round" stroke-linejoin="round"/>
<path id="Vector_153" d="M78.232 307.268L83.932 311.182C84.4333 311.525 85.0013 311.758 85.5988 311.866C86.1964 311.974 86.81 311.954 87.3995 311.809L103.445 307.8C104.082 307.641 104.665 307.317 105.136 306.86C105.606 306.403 105.947 305.829 106.124 305.197L106.789 302.831C107.039 301.937 107.019 300.988 106.73 300.105C106.44 299.223 105.896 298.445 105.165 297.872L97.688 292.03C96.9379 291.44 96.0004 291.14 95.047 291.185L76.2275 291.992L78.232 307.268Z" fill="#757575" stroke="#1D2417" stroke-linecap="round" stroke-linejoin="round"/>
<path id="Vector_154" d="M82.9922 293.635L89.0057 299.782L101.688 298.091L95.1142 292.638L82.9922 293.635Z" fill="#1D2417"/>
<path id="Vector_155" d="M84.7395 311.6C83.286 310.726 84.502 304 85.1575 302.946C85.813 301.891 102.447 299.753 102.447 299.753" stroke="#1D2417" stroke-linecap="round" stroke-linejoin="round"/>
<path id="Vector_156" d="M89.3001 307.258C89.1291 307.99 88.6161 308.503 88.1506 308.389C87.6851 308.275 87.4476 307.61 87.6091 306.869C87.7706 306.128 88.2931 305.634 88.7586 305.738C89.2241 305.843 89.4331 306.527 89.3001 307.258Z" stroke="#1D2417" stroke-linecap="round" stroke-linejoin="round"/>
<path id="Vector_157" d="M95.2565 306.498C94.9715 307.724 94.1165 308.569 93.3565 308.398C92.5965 308.227 92.169 307.087 92.4065 305.862C92.644 304.636 93.5465 303.781 94.3065 303.962C95.0665 304.142 95.532 305.263 95.2565 306.498Z" stroke="#1D2417" stroke-linecap="round" stroke-linejoin="round"/>
<path id="Vector_158" d="M80.6738 313.405C80.6738 313.405 82.3363 316.416 86.9913 317.442C91.6463 318.468 94.3633 316.834 94.3633 316.834" stroke="#1D2417" stroke-linecap="round" stroke-linejoin="round"/>
<path id="Vector_159" d="M94.8287 314.535C94.8287 314.535 88.1787 315.656 84.0557 312.892" stroke="#1D2417" stroke-linecap="round" stroke-linejoin="round"/>
<g id="Vector_160">
<path d="M73.15 276.45C72.3235 280.193 66.709 294.747 66.709 296.885C66.709 299.022 70.2145 299.259 70.509 300.76C70.8035 302.261 74.974 304 74.974 304L76.4845 308.256C77.6864 309.632 79.3477 310.523 81.1585 310.764C84.3315 311.267 81.491 308.256 81.2155 307.506C80.94 306.755 81.738 301.245 81.2155 299.991C80.693 298.737 87.001 292.723 87.5615 294.234C88.122 295.744 87.2575 298.737 87.5615 300.494C87.8655 302.252 91.01 304.247 90.5065 301.492C90.003 298.737 93.632 289.864 90.5065 287.717C89.0296 286.54 87.8013 285.082 86.8929 283.427C85.9845 281.772 85.4142 279.952 85.215 278.074" fill="#BFBFBF"/>
<path d="M73.15 276.45C72.3235 280.193 66.709 294.747 66.709 296.885C66.709 299.022 70.2145 299.259 70.509 300.76C70.8035 302.261 74.974 304 74.974 304L76.4845 308.256C77.6864 309.632 79.3477 310.523 81.1585 310.764C84.3315 311.267 81.491 308.256 81.2155 307.506C80.94 306.755 81.738 301.245 81.2155 299.991C80.693 298.737 87.001 292.723 87.5615 294.234C88.122 295.744 87.2575 298.737 87.5615 300.494C87.8655 302.252 91.01 304.247 90.5065 301.492C90.003 298.737 93.632 289.864 90.5065 287.717C89.0296 286.54 87.8013 285.082 86.8929 283.427C85.9845 281.772 85.4142 279.952 85.215 278.074" stroke="#1D2417" stroke-linecap="round" stroke-linejoin="round"/>
</g>
<path id="Vector_161" d="M82.992 304.294C82.992 304.294 71.155 290.434 72.9505 273.79L71.25 280.706C71.25 280.706 71.7155 297.341 82.992 307.069V304.294Z" fill="#507C40" stroke="#1D2417" stroke-linecap="round" stroke-linejoin="round"/>
<path id="Vector_162" d="M100.529 181.241C100.529 181.241 101.222 187.102 94.3633 190.684" stroke="#1D2417" stroke-linecap="round" stroke-linejoin="round"/>
<path id="Vector_163" d="M93.0234 196.84C93.0234 196.84 94.1349 206.046 97.4599 212.183" stroke="#1D2417" stroke-linecap="round" stroke-linejoin="round"/>
<path id="Vector_164" d="M135.755 302.879C135.755 302.879 135.926 294.576 138.424 292.638C139.536 291.783 138.909 281.988 139.241 281.456C139.574 280.924 148.627 272.194 149.15 267.9" stroke="white" stroke-linecap="round" stroke-linejoin="round"/>
<path id="Vector_165" d="M144.457 285.237C144.457 285.237 151.649 287.764 155.658 285.237" stroke="white" stroke-linecap="round" stroke-linejoin="round"/>
<path id="Vector_166" d="M175.199 293.635C175.199 293.635 158.868 297.891 150.062 293.635" stroke="white" stroke-linecap="round" stroke-linejoin="round"/>
<path id="Vector_167" d="M146.386 261.421C146.386 261.421 138.501 280.526 121.686 292.638" stroke="white" stroke-linecap="round" stroke-linejoin="round"/>
<path id="Vector_168" d="M135.755 248.824C140.875 243.504 135.042 236.797 135.042 236.797C135.042 236.797 144.191 243.19 143.944 238.431C143.697 233.671 135.109 236.332 135.109 236.332C135.109 236.332 125.305 236.389 126.397 242.032C127.49 247.675 135.109 237.528 135.109 237.528C135.109 237.528 134.672 245.907 127.784 248.482" stroke="white" stroke-linecap="round" stroke-linejoin="round"/>
<path id="Vector_169" d="M104.319 235.6C102.913 236.939 104.319 243.323 104.319 243.323C104.319 243.323 98.2104 267.52 99.9014 278.16C101.592 288.8 100.975 292.6 100.975 292.6" stroke="white" stroke-linecap="round" stroke-linejoin="round"/>
<path id="Vector_170" d="M135.127 255.341C135.127 255.341 134.016 264.926 135.754 266.237C137.493 267.548 137.863 272.251 137.863 272.251" stroke="white" stroke-linecap="round" stroke-linejoin="round"/>
</g>
</g>
</svg>
